<svg xmlns="http://www.w3.org/2000/svg" viewBox="0 0 318 237">
  <path d="M80.69,69.13l1,2,2.15.3-1.55,1.49L82.59,75l-1.9-1-2,1,.36-2.15L77.53,71.4l2.14-.3Z" fill="#ebebeb" />
  <path d="M273.55,161.14l.95,2,2.15.29L275.1,165l.36,2.14-1.91-1-1.91,1L272,165l-1.55-1.56,2.15-.29Z" fill="#f5f5f5" />
  <path d="M235.35,217.88l1,2,2.15.3-1.55,1.55.35,2.15-1.9-1-1.91,1,.36-2.15-1.55-1.55,2.14-.3Z" fill="#f5f5f5" />
  <path
    d="M148,34.46l.36.72.78.12a.24.24,0,0,1,.12.42l-.6.53.12.78a.23.23,0,0,1-.36.24l-.71-.36-.72.36c-.18.12-.36-.06-.36-.24l.12-.78-.59-.53a.27.27,0,0,1,.12-.42l.77-.12.36-.72C147.62,34.28,147.85,34.28,148,34.46Z"
    fill="#ebebeb" />
  <path
    d="M49.52,208.63l.35.72.78.12c.18,0,.3.3.12.41l-.6.54.12.78a.23.23,0,0,1-.36.24l-.71-.36-.72.36c-.18.12-.35-.06-.35-.24l.11-.78-.59-.54a.26.26,0,0,1,.12-.41l.77-.12.36-.72C49.16,208.45,49.4,208.45,49.52,208.63Z"
    fill="#f5f5f5" />
  <path
    d="M65.61,26.77l.36.71.77.12a.24.24,0,0,1,.12.42l-.6.54.12.77a.23.23,0,0,1-.35.24l-.72-.36-.72.36c-.17.12-.35-.06-.35-.24l.12-.77-.6-.54a.27.27,0,0,1,.12-.42l.77-.12.36-.71C65.25,26.59,65.49,26.59,65.61,26.77Z"
    fill="#ebebeb" />
  <path d="M64.59,170.62a.77.77,0,1,1-.77-.77A.71.71,0,0,1,64.59,170.62Z" fill="#ebebeb" />
  <path d="M177.6,71.28a.78.78,0,0,1-1.56,0,.78.78,0,1,1,1.56,0Z" fill="#ebebeb" />
  <path d="M136.47,27.42a.78.78,0,1,1-.77-.77A.78.78,0,0,1,136.47,27.42Z" fill="#f5f5f5" />
  <path d="M137.71,220.8a4.36,4.36,0,1,0-5.23-3.24A4.36,4.36,0,0,0,137.71,220.8Z" fill="#f0f0f0" />
  <path
    d="M135.22,214a4.05,4.05,0,0,0-2.5.84,4.22,4.22,0,0,0-.36,1.73,4.35,4.35,0,0,0,4.41,4.35,4.8,4.8,0,0,0,2.26-.59,4,4,0,0,0,.54-2A4.37,4.37,0,0,0,135.22,214Z"
    fill="#e6e6e6" />
  <path d="M101.31,140.37H65V124l36.3-43.14h17.34v44.1h9v15.45h-9V153.8H101.31Zm0-15.45V102.36L82.12,124.92Z"
    fill="#00c39f" />
  <path
    d="M133.85,117.64c0-13.67,2.44-23.15,7.33-28.64s12.4-8.18,22.41-8.18a33.39,33.39,0,0,1,11.86,1.79A22.18,22.18,0,0,1,183,87.27a25.2,25.2,0,0,1,4.65,6,32.39,32.39,0,0,1,2.74,7.34,70.15,70.15,0,0,1,2,16.71c0,13-2.21,22.56-6.62,28.58s-12,9.07-22.71,9.07c-6,0-10.9-1-14.6-2.86a24,24,0,0,1-9.12-8.48,31.42,31.42,0,0,1-4-10.86A70.36,70.36,0,0,1,133.85,117.64Zm19.73,0c0,9.13.83,15.39,2.44,18.74s3.93,5,7,5a7.31,7.31,0,0,0,5.25-2.15c1.49-1.43,2.56-3.64,3.28-6.74s1.07-7.82,1.07-14.32c0-9.55-.84-15.93-2.44-19.22s-4.06-4.89-7.28-4.89-5.66,1.67-7.15,5S153.58,108.63,153.58,117.64Z"
    fill="#00c39f" />
  <path d="M234.81,140.37h-36.3V124l36.3-43.14h17.34v44.1h9v15.45h-9V153.8H234.81Zm0-15.45V102.36l-19.13,22.56Z"
    fill="#00c39f" />
  <g opacity="0.3">
    <path d="M133.07,55.64a1.13,1.13,0,1,1-1.13-1.13A1.13,1.13,0,0,1,133.07,55.64Z" fill="#407bff" opacity="0.3"
      style="isolation:isolate" />
    <path d="M56.79,98.49a.78.78,0,0,0,0-1.56.78.78,0,1,0,0,1.56Z" fill="#407bff" opacity="0.3"
      style="isolation:isolate" />
    <path d="M186.77,213.52a1.13,1.13,0,1,0-1.13-1.13A1.13,1.13,0,0,0,186.77,213.52Z" fill="#407bff" opacity="0.3"
      style="isolation:isolate" />
    <path d="M213.83,167.58a.78.78,0,1,0,0-1.55.78.78,0,0,0,0,1.55Z" fill="#407bff" opacity="0.3"
      style="isolation:isolate" />
    <path d="M266.1,25.81a.78.78,0,1,1-.77-.77A.71.71,0,0,1,266.1,25.81Z" fill="#407bff" opacity="0.3"
      style="isolation:isolate" />
    <path d="M116.27,9.88a.78.78,0,1,1-.78-.78A.79.79,0,0,1,116.27,9.88Z" fill="#407bff" opacity="0.3"
      style="isolation:isolate" />
    <path d="M178.79,51.23a.78.78,0,1,0-.78-.78A.78.78,0,0,0,178.79,51.23Z" fill="#407bff" opacity="0.3"
      style="isolation:isolate" />
  </g>
  <path d="M97.43,51.23A13.07,13.07,0,1,0,84.38,38.16,13.07,13.07,0,0,0,97.43,51.23Z" fill="#00c39f" />
  <path d="M97.43,51.23A13.07,13.07,0,1,0,84.38,38.16,13.07,13.07,0,0,0,97.43,51.23Z" fill="#fff" opacity="0.7"
    style="isolation:isolate" />
  <path
    d="M93,28.32a12.07,12.07,0,0,0-5.12,1.07,12.93,12.93,0,0,0-3.4,8.83,13.06,13.06,0,0,0,13,13.07,12.57,12.57,0,0,0,5.19-1.08A13.09,13.09,0,0,0,93,28.32Z"
    fill="#00c39f" opacity="0.2" style="isolation:isolate" />
  <path d="M91.65,31.78a1.19,1.19,0,1,1-1.19-1.2A1.19,1.19,0,0,1,91.65,31.78Z" fill="#00c39f" opacity="0.2"
    style="isolation:isolate" />
  <path d="M105.72,30.58a1.2,1.2,0,1,1-1.19-1.19A1.2,1.2,0,0,1,105.72,30.58Z" fill="#00c39f" opacity="0.2"
    style="isolation:isolate" />
  <path d="M103.33,39.06a2,2,0,1,1-2-2A2,2,0,0,1,103.33,39.06Z" fill="#00c39f" opacity="0.2"
    style="isolation:isolate" />
  <path d="M97.08,44.67A2.63,2.63,0,1,1,94.45,42,2.61,2.61,0,0,1,97.08,44.67Z" fill="#00c39f" opacity="0.2"
    style="isolation:isolate" />
  <path d="M252.21,195.89a11.44,11.44,0,1,0-13.77,8.52A11.46,11.46,0,0,0,252.21,195.89Z" fill="#00c39f" />
  <path d="M252.21,195.89a11.44,11.44,0,1,0-13.77,8.52A11.46,11.46,0,0,0,252.21,195.89Z" fill="#fff" opacity="0.3"
    style="isolation:isolate" />
  <path
    d="M248.28,184.35a11.71,11.71,0,0,0-3.28-.48,11.46,11.46,0,0,0-7.21,20.35,12.09,12.09,0,0,0,3.28.47,11.45,11.45,0,0,0,11.44-11.45A11.31,11.31,0,0,0,248.28,184.35Z"
    fill="#00c39f" opacity="0.4" style="isolation:isolate" />
  <path
    d="M230.1,196.64c-12.22,5.79-3.1,10.2,14.13,4,16-5.73,22-13,7.81-10.74C252.75,192.94,232.79,200.76,230.1,196.64Z"
    fill="#00c39f" />
  <path d="M248.16,80.82c-16,10.86-36.77,25.12-42.49,59.55h-1.19c5.54-34,25.56-48.69,41.59-59.55Z" opacity="0.2"
    style="isolation:isolate" />
  <path
    d="M165.26,188.46c-10.13,0-20.15-4.59-25-12.05-3-4.59-6.5-14.32,3.93-27.21l1,.78c-7.39,9.13-8.7,18.32-3.81,25.78,6,9.12,20,13.72,32,10.44,12.28-3.34,19.79-14.08,20.51-29.36,2.44-52.39,30.27-68.56,50.54-80.31C257,69.19,266.1,63.94,264.07,52.78a4.65,4.65,0,0,0-1.9-3.28c-2.62-1.73-7.69-.54-13.53.83C237.13,53,221.4,56.72,212,40.73l1-.6c8.94,15.22,23.6,11.82,35.34,9.07,6.14-1.43,11.44-2.68,14.42-.66a5.67,5.67,0,0,1,2.39,4.06c2.14,12-7.75,17.72-20.33,25-20.08,11.64-47.56,27.63-50,79.36-.78,15.87-8.52,27-21.34,30.49A33.89,33.89,0,0,1,165.26,188.46Z"
    fill="#407bff" />
  <path
    d="M165.26,188.46c-10.13,0-20.15-4.59-25-12.05-3-4.59-6.5-14.32,3.93-27.21l1,.78c-7.39,9.13-8.7,18.32-3.81,25.78,6,9.12,20,13.72,32,10.44,12.28-3.34,19.79-14.08,20.51-29.36,2.44-52.39,30.27-68.56,50.54-80.31C257,69.19,266.1,63.94,264.07,52.78a4.65,4.65,0,0,0-1.9-3.28c-2.62-1.73-7.69-.54-13.53.83C237.13,53,221.4,56.72,212,40.73l1-.6c8.94,15.22,23.6,11.82,35.34,9.07,6.14-1.43,11.44-2.68,14.42-.66a5.67,5.67,0,0,1,2.39,4.06c2.14,12-7.75,17.72-20.33,25-20.08,11.64-47.56,27.63-50,79.36-.78,15.87-8.52,27-21.34,30.49A33.89,33.89,0,0,1,165.26,188.46Z"
    fill="#fff" opacity="0.2" style="isolation:isolate" />
  <path d="M199.71,26.59a28.31,28.31,0,0,1,8.1,1.25s6.56,11.22,7.33,13.78c-.29,2.51-4.53,6.69-4.53,6.69Z"
    fill="#00c39f" />
  <path d="M199.71,26.59a28.31,28.31,0,0,1,8.1,1.25s6.56,11.22,7.33,13.78c-.29,2.51-4.53,6.69-4.53,6.69Z" fill="#fff"
    opacity="0.3" style="isolation:isolate" />
  <path
    d="M219.08,81a87,87,0,0,1-6.92-9.78c-.47-.84-.95-1.73-1.43-2.63-.24-.47-.47-1-.71-1.55a6.33,6.33,0,0,1-.72-1.61c-.71-7.58,1.85-13.13-.59-19.21L198.87,50s.84,10.8,2.74,17.3c1.2,4,3.88,7.46,6.44,10.68.83,1,1.61,2,2.38,3s1.61,1.85,2.39,2.81c1.13,1.43,1.55,2.8.65,4.53-.06.12-.12.18-.12.3-.23.42.9,1,1.67,0,1.2-1.55,1-1.43,2.09-2.74.66-.78,1.37-1.67,2-2.39A2.09,2.09,0,0,0,219.08,81Z"
    fill="#00c39f" />
  <path
    d="M219.08,81a87,87,0,0,1-6.92-9.78c-.47-.84-.95-1.73-1.43-2.63-.24-.47-.47-1-.71-1.55a6.33,6.33,0,0,1-.72-1.61c-.71-7.58,1.85-13.13-.59-19.21L198.87,50s.84,10.8,2.74,17.3c1.2,4,3.88,7.46,6.44,10.68.83,1,1.61,2,2.38,3s1.61,1.85,2.39,2.81c1.13,1.43,1.55,2.8.65,4.53-.06.12-.12.18-.12.3-.23.42.9,1,1.67,0,1.2-1.55,1-1.43,2.09-2.74.66-.78,1.37-1.67,2-2.39A2.09,2.09,0,0,0,219.08,81Z"
    fill="#fff" opacity="0.7" style="isolation:isolate" />
  <path
    d="M216.69,77.9a31,31,0,0,1-5.18,4.48c.24.29.53.59.77.89a26.25,26.25,0,0,0,5.07-4.47A8.59,8.59,0,0,0,216.69,77.9Z"
    fill="#00c39f" opacity="0.3" style="isolation:isolate" />
  <path
    d="M219.08,81a.06.06,0,0,0-.06-.06,3.12,3.12,0,0,0-.78,1.91,2.81,2.81,0,0,0,.24,1.44,6.38,6.38,0,0,1,.54-.66A2.09,2.09,0,0,0,219.08,81Z"
    fill="#00c39f" opacity="0.3" style="isolation:isolate" />
  <path
    d="M197.32,33.75A21.05,21.05,0,0,1,193.51,38a16.55,16.55,0,0,1-2.62,1.79,12.66,12.66,0,0,1-1.55.66l-.42.12-.12.06c-.12,0-.18.06-.3.06a1.6,1.6,0,0,1-.53.06,5,5,0,0,1-3.22-.9c-.48-.3-.9-.53-1.31-.83-.78-.6-1.49-1.2-2.15-1.79a33.79,33.79,0,0,1-3.58-4,1.52,1.52,0,0,1,.3-2.09,1.43,1.43,0,0,1,1.67-.06h.06c1.43.9,2.8,1.85,4.23,2.69.72.41,1.37.83,2,1.13.36.18.65.3.95.42a2.73,2.73,0,0,0,.66.18c.06,0,0-.06-.24-.06h-.18c-.06,0-.06,0-.12.06h0l.18-.12a4.89,4.89,0,0,0,.77-.48,9.78,9.78,0,0,0,1.49-1.25c1-1,1.91-2.21,2.93-3.46a3,3,0,0,1,4.17-.48A2.82,2.82,0,0,1,197.32,33.75Z"
    fill="#00c39f" />
  <path
    d="M197.32,33.75A21.05,21.05,0,0,1,193.51,38a16.55,16.55,0,0,1-2.62,1.79,12.66,12.66,0,0,1-1.55.66l-.42.12-.12.06c-.12,0-.18.06-.3.06a1.6,1.6,0,0,1-.53.06,5,5,0,0,1-3.22-.9c-.48-.3-.9-.53-1.31-.83-.78-.6-1.49-1.2-2.15-1.79a33.79,33.79,0,0,1-3.58-4,1.52,1.52,0,0,1,.3-2.09,1.43,1.43,0,0,1,1.67-.06h.06c1.43.9,2.8,1.85,4.23,2.69.72.41,1.37.83,2,1.13.36.18.65.3.95.42a2.73,2.73,0,0,0,.66.18c.06,0,0-.06-.24-.06h-.18c-.06,0-.06,0-.12.06h0l.18-.12a4.89,4.89,0,0,0,.77-.48,9.78,9.78,0,0,0,1.49-1.25c1-1,1.91-2.21,2.93-3.46a3,3,0,0,1,4.17-.48A2.82,2.82,0,0,1,197.32,33.75Z"
    fill="#fff" opacity="0.7" style="isolation:isolate" />
  <path
    d="M175.57,29.87l.71,1.19s.54,1.55,1.61,1.85l2.92-.95-.11-.24a4,4,0,0,1-.18-2.57c.11-.89-.36-.95-.72-.71a2,2,0,0,0-.48,1,3.24,3.24,0,0,0-.47-.54L178,28a1,1,0,0,0-1.37-.06l-.71.66A.89.89,0,0,0,175.57,29.87Z"
    fill="#00c39f" />
  <path
    d="M175.57,29.87l.71,1.19s.54,1.55,1.61,1.85l2.92-.95-.11-.24a4,4,0,0,1-.18-2.57c.11-.89-.36-.95-.72-.71a2,2,0,0,0-.48,1,3.24,3.24,0,0,0-.47-.54L178,28a1,1,0,0,0-1.37-.06l-.71.66A.89.89,0,0,0,175.57,29.87Z"
    fill="#fff" opacity="0.7" style="isolation:isolate" />
  <path
    d="M202.63,25.57a34.83,34.83,0,0,0-9.12,3.88,2.58,2.58,0,0,0-1.13,2.69,64.38,64.38,0,0,0,6.61,18l13.17-5.43c.12-2.33-3.1-9.85-6.37-17.13C205.13,26.17,204,25.21,202.63,25.57Z"
    fill="#00c39f" />
  <path
    d="M202.63,25.57a34.83,34.83,0,0,0-9.12,3.88,2.58,2.58,0,0,0-1.13,2.69,64.38,64.38,0,0,0,6.61,18l13.17-5.43c.12-2.33-3.1-9.85-6.37-17.13C205.13,26.17,204,25.21,202.63,25.57Z"
    fill="#fff" opacity="0.8" style="isolation:isolate" />
  <path d="M207.75,32.14l-2.62-.9c.6,1.55,2.68,3.46,4.17,4.6C208.83,34.64,208.29,33.39,207.75,32.14Z" fill="#00c39f"
    opacity="0.3" style="isolation:isolate" />
  <path
    d="M201.73,19.67c-1.07-2.09-3.45-3.11-6.25-2.87-2.39.18-4.47,2.63-4.24,3.94s2.27,1.85,2.63,2.33l-1.67,1.19a1.76,1.76,0,0,0-.36,2.57c.71.89,1.61,1.79,2.15,2.44,4.58-.12,7.92-1.85,9.17-3.52C202.69,23.6,202.81,21.69,201.73,19.67Z"
    fill="#00c39f" />
  <path
    d="M201.73,19.67c-1.07-2.09-3.45-3.11-6.25-2.87-2.39.18-4.47,2.63-4.24,3.94s2.27,1.85,2.63,2.33l-1.67,1.19a1.76,1.76,0,0,0-.36,2.57c.71.89,1.61,1.79,2.15,2.44,4.58-.12,7.92-1.85,9.17-3.52C202.69,23.6,202.81,21.69,201.73,19.67Z"
    fill="#fff" opacity="0.8" style="isolation:isolate" />
  <path d="M199.53,20.92a4.51,4.51,0,1,1-5.84-2.57A4.52,4.52,0,0,1,199.53,20.92Z" fill="#263238" />
  <path
    d="M238.21,74.68c-.06-2-.18-1.79-.18-3.46-.06-1-.06-2.15-.06-3.1a2,2,0,0,0-1.61-2c-.77-.18-1.61-.3-2.38-.48-1-.24-2-.48-3-.78-.78-.24-1.55-.47-2.33-.77s-1.61-.6-2.44-1-1.85-.83-2.8-1.25-2-1-3-1.55c-3.93-6.51-4-10.8-8.23-15.81L203,48.66s6.62,11.82,11.15,16.77c2.62,2.86,6.68,4.18,10.31,5.13,2.62.66,5.3,1.2,8,1.67a6.91,6.91,0,0,1,3,.9,3.19,3.19,0,0,1,1.25,2.09c.06.17.06.35.12.47C237,76.29,238.27,75.87,238.21,74.68Z"
    fill="#00c39f" />
  <path
    d="M238.21,74.68c-.06-2-.18-1.79-.18-3.46-.06-1-.06-2.15-.06-3.1a2,2,0,0,0-1.61-2c-.77-.18-1.61-.3-2.38-.48-1-.24-2-.48-3-.78-.78-.24-1.55-.47-2.33-.77s-1.61-.6-2.44-1-1.85-.83-2.8-1.25-2-1-3-1.55c-3.93-6.51-4-10.8-8.23-15.81L203,48.66s6.62,11.82,11.15,16.77c2.62,2.86,6.68,4.18,10.31,5.13,2.62.66,5.3,1.2,8,1.67a6.91,6.91,0,0,1,3,.9,3.19,3.19,0,0,1,1.25,2.09c.06.17.06.35.12.47C237,76.29,238.27,75.87,238.21,74.68Z"
    fill="#fff" opacity="0.8" style="isolation:isolate" />
  <path
    d="M233.62,65.61c-.36-.06-.72-.18-1.07-.24a28.42,28.42,0,0,1-1.31,6.68,7.87,7.87,0,0,1,1.13.24A21,21,0,0,0,233.62,65.61Z"
    fill="#00c39f" opacity="0.3" style="isolation:isolate" />
  <path
    d="M238,68.18a2,2,0,0,0-1.61-2c-.18-.06-.36-.06-.6-.12a3.2,3.2,0,0,0,1,1.73,2.36,2.36,0,0,0,1.19.65A.64.64,0,0,0,238,68.18Z"
    fill="#00c39f" opacity="0.3" style="isolation:isolate" />
  <path
    d="M198.69,21c.24.89-.77,1.85-1.6,1.07a22.42,22.42,0,0,0-2.45-2.21c-.83-.53.3-1.43,1.61-1.07A3.63,3.63,0,0,1,198.69,21Z"
    fill="#fff" />
  <path
    d="M198.75,49.8c-.41.18.36.89.36.89a94.85,94.85,0,0,0,13.41-5.79,1.13,1.13,0,0,0-.42-.95A130.25,130.25,0,0,1,198.75,49.8Z"
    fill="#00c39f" />
  <path
    d="M198.75,49.8c-.41.18.36.89.36.89a94.85,94.85,0,0,0,13.41-5.79,1.13,1.13,0,0,0-.42-.95A130.25,130.25,0,0,1,198.75,49.8Z"
    fill="#fff" opacity="0.5" style="isolation:isolate" />
  <path
    d="M204.89,25.16a50.66,50.66,0,0,1,4.71,2.68c.78.48,1.55.95,2.27,1.49s1.48,1.08,2.26,1.73l.3.24.36.3a7,7,0,0,1,.59.66,6.32,6.32,0,0,0,.54.59c.18.18.3.42.48.6a25.37,25.37,0,0,1,1.54,2.39,37.59,37.59,0,0,1,2.39,4.95,1.51,1.51,0,0,1-2.51,1.55v-.06c-1.19-1.25-2.32-2.63-3.51-3.88a16.63,16.63,0,0,0-3.28-3c-1.37-.84-2.86-1.67-4.35-2.51l-4.53-2.5A3,3,0,0,1,201,26.29,2.9,2.9,0,0,1,204.89,25.16Z"
    fill="#00c39f" />
  <path
    d="M204.89,25.16a50.66,50.66,0,0,1,4.71,2.68c.78.48,1.55.95,2.27,1.49s1.48,1.08,2.26,1.73l.3.24.36.3a7,7,0,0,1,.59.66,6.32,6.32,0,0,0,.54.59c.18.18.3.42.48.6a25.37,25.37,0,0,1,1.54,2.39,37.59,37.59,0,0,1,2.39,4.95,1.51,1.51,0,0,1-2.51,1.55v-.06c-1.19-1.25-2.32-2.63-3.51-3.88a16.63,16.63,0,0,0-3.28-3c-1.37-.84-2.86-1.67-4.35-2.51l-4.53-2.5A3,3,0,0,1,201,26.29,2.9,2.9,0,0,1,204.89,25.16Z"
    fill="#fff" opacity="0.8" style="isolation:isolate" />
  <path
    d="M221.7,43.77l-.48-1.25s-.3-1.61-1.31-2.09l-3,.48.12.24a4.3,4.3,0,0,1-.18,2.56c-.3.9.18,1,.6.84.24-.12.41-.48.65-.9a5.28,5.28,0,0,0,.36.6l.72,1a1,1,0,0,0,1.37.24l.83-.54A1,1,0,0,0,221.7,43.77Z"
    fill="#00c39f" />
  <path
    d="M221.7,43.77l-.48-1.25s-.3-1.61-1.31-2.09l-3,.48.12.24a4.3,4.3,0,0,1-.18,2.56c-.3.9.18,1,.6.84.24-.12.41-.48.65-.9a5.28,5.28,0,0,0,.36.6l.72,1a1,1,0,0,0,1.37.24l.83-.54A1,1,0,0,0,221.7,43.77Z"
    fill="#fff" opacity="0.8" style="isolation:isolate" />
  <path d="M202.33,32l-.72.06-4.47,10.8a2.92,2.92,0,0,0,.72-.06s5.84-2.15,7.57-3C204.3,37.39,202.33,32,202.33,32Z"
    fill="#00c39f" opacity="0.3" style="isolation:isolate" />
  <path
    d="M194.22,34.82a25.28,25.28,0,0,0,3,8c2.21-.78,5.84-2.15,7.57-3a73.55,73.55,0,0,1-3.1-7.81A21.33,21.33,0,0,0,194.22,34.82Z"
    fill="#fff" />
  <path d="M198.63,37.21a1.49,1.49,0,0,1-1.9,1,1.53,1.53,0,1,1,.89-2.92A1.54,1.54,0,0,1,198.63,37.21Z" fill="#00c39f"
    opacity="0.3" style="isolation:isolate" />
  <path d="M199.77,35.12a.53.53,0,1,1-.36-.66A.52.52,0,0,1,199.77,35.12Z" fill="#00c39f" opacity="0.6"
    style="isolation:isolate" />
  <path d="M201.14,34.58a.57.57,0,0,1-.66.36.53.53,0,1,1,.3-1A.63.63,0,0,1,201.14,34.58Z" fill="#00c39f" opacity="0.6"
    style="isolation:isolate" />
  <path d="M203,39.24l-5.49,2.2-.36-1.07,5.49-2.21Z" fill="#00c39f" opacity="0.5" style="isolation:isolate" />
  <path
    d="M172.59,122.17a59,59,0,0,1-1,10.39c-.72,3-1.79,5.31-3.28,6.74a7.31,7.31,0,0,1-5.25,2.15c-3,0-5.42-1.67-7-5-.24-.53-.48-1.19-.72-1.84a89.79,89.79,0,0,0-9.47,9.54l-3.16,3.76a23.4,23.4,0,0,0,5.84,4.3c3.7,1.91,8.58,2.86,14.6,2.86,1.08,0,2.09,0,3.1-.06a86.45,86.45,0,0,0,9-17.3l8.88-23.09Z"
    opacity="0.2" style="isolation:isolate" />
  <path d="M92.79,153.68l10.43,10.44,29.2-27.57C122.35,132.74,102.8,143.65,92.79,153.68Z" fill="#25282b" />
  <path d="M129.14,190.07l-10.43-10.44,27.54-29.23C150.06,160.48,139.15,180.11,129.14,190.07Z" fill="#25282b" />
  <path
    d="M169.07,124.26l11.39-22L158.52,113.7a86.12,86.12,0,0,0-19.31,13.73l-37.36,35.26,18.35,18.38,35.22-37.42A86.28,86.28,0,0,0,169.07,124.26Z"
    fill="#00c39f" />
  <path
    d="M169.07,124.26l11.39-22L158.52,113.7a86.12,86.12,0,0,0-19.31,13.73l-37.36,35.26,18.35,18.38,35.22-37.42A86.28,86.28,0,0,0,169.07,124.26Z"
    fill="#fff" opacity="0.6" style="isolation:isolate" />
  <path d="M145.71,144.79a7.7,7.7,0,1,0-7.69-7.7A7.69,7.69,0,0,0,145.71,144.79Z" fill="#fff" />
  <path d="M145.71,142a5,5,0,1,0-5-4.95A4.95,4.95,0,0,0,145.71,142Z" fill="#00c39f" />
  <path d="M126.4,174.5l-18-18,14.72-13.9,17.11,17.18Z" fill="#00c39f" opacity="0.3" style="isolation:isolate" />
  <path
    d="M96.84,170.21c-13.47,1.07-17.94,9.72-19.43,21.18-.78,5.85-1.13,11.75-6,15.21a1.66,1.66,0,0,0,1,3.05c18.06-.54,26.52-9.43,27.6-13.13a26.12,26.12,0,0,1-1.49,5.67,1.64,1.64,0,0,0,2.38,2c5.07-3.17,11.44-9.07,11.86-18.56C108.94,180.35,96.84,170.21,96.84,170.21Z"
    fill="#19c9a8" />
  <path
    d="M96.84,170.21c-13.47,1.07-17.94,9.72-19.43,21.18-.78,5.85-1.13,11.75-6,15.21a1.66,1.66,0,0,0,1,3.05c18.06-.54,26.52-9.43,27.6-13.13a26.12,26.12,0,0,1-1.49,5.67,1.64,1.64,0,0,0,2.38,2c5.07-3.17,11.44-9.07,11.86-18.56C108.94,180.35,96.84,170.21,96.84,170.21Z"
    fill="#fff" opacity="0.2" style="isolation:isolate" />
  <path d="M114.78,189.66,93.2,168.12l11.51-2.51,12.57,12.59Z" fill="#00c39f" />
</svg>