<svg viewBox="0 0 487 408" fill="none" xmlns="http://www.w3.org/2000/svg">
  <g clip-path="url(#clip0_1424_9534)">
    <path
      d="M383.434 305.919C383.327 305.743 383.157 305.616 382.959 305.564C382.757 305.513 382.547 305.542 382.369 305.649L379.789 307.167L378.265 304.597C378.158 304.421 377.99 304.294 377.789 304.242C377.588 304.191 377.378 304.22 377.202 304.327C377.023 304.432 376.896 304.6 376.844 304.801C376.793 304.999 376.822 305.209 376.929 305.388L378.453 307.958L375.875 309.476C375.696 309.581 375.571 309.749 375.517 309.95C375.466 310.148 375.495 310.358 375.602 310.537C375.709 310.713 375.877 310.838 376.078 310.892C376.279 310.943 376.489 310.914 376.668 310.807L379.246 309.289L380.769 311.859C380.941 312.149 381.274 312.283 381.589 312.223C381.674 312.207 381.754 312.174 381.833 312.129C382.201 311.912 382.324 311.437 382.107 311.068L380.582 308.498L383.162 306.98C383.528 306.761 383.651 306.288 383.434 305.919Z"
      fill="#969696"
    />
    <path
      d="M389.966 322.921C388.099 322.921 386.582 321.409 386.582 319.549C386.582 317.687 388.099 316.175 389.966 316.175C391.834 316.175 393.351 317.687 393.351 319.549C393.351 321.409 391.834 322.921 389.966 322.921ZM389.966 317.982C389.1 317.982 388.391 318.685 388.391 319.551C388.391 320.418 389.097 321.121 389.966 321.121C390.833 321.121 391.544 320.418 391.544 319.551C391.544 318.685 390.838 317.982 389.966 317.982Z"
      fill="#969696"
    />
    <path
      d="M48.1654 372.408C46.2983 372.408 44.7805 370.894 44.7805 369.034C44.7805 367.174 46.2983 365.662 48.1654 365.662C50.0325 365.662 51.5503 367.174 51.5503 369.034C51.5503 370.894 50.0294 372.408 48.1654 372.408ZM48.1654 367.464C47.2982 367.464 46.5896 368.167 46.5896 369.034C46.5896 369.898 47.2948 370.603 48.1654 370.603C49.0326 370.603 49.7414 369.902 49.7414 369.034C49.7414 368.17 49.0326 367.464 48.1654 367.464Z"
      fill="#969696"
    />
    <path
      d="M422.913 9.82473C421.045 9.82473 419.528 8.31255 419.528 6.45215C419.528 4.59174 421.045 3.07956 422.913 3.07956C424.78 3.07956 426.297 4.59174 426.297 6.45215C426.297 8.31255 424.78 9.82473 422.913 9.82473ZM422.913 4.88515C422.046 4.88515 421.338 5.58804 421.338 6.45536C421.338 7.31947 422.044 8.0256 422.913 8.0256C423.782 8.0256 424.49 7.32271 424.49 6.45536C424.49 5.58804 423.784 4.88515 422.913 4.88515Z"
      fill="#969696"
    />
    <path
      d="M480.841 95.2194C480.653 95.3096 480.515 95.4677 480.448 95.6645C480.379 95.861 480.392 96.0706 480.484 96.2544L481.793 98.9371L479.101 100.243C478.913 100.333 478.775 100.491 478.705 100.688C478.638 100.884 478.652 101.094 478.741 101.278C478.833 101.465 478.991 101.603 479.188 101.671C479.387 101.739 479.597 101.726 479.78 101.636L482.472 100.33L483.783 103.012C483.875 103.2 484.033 103.338 484.23 103.406C484.426 103.474 484.639 103.461 484.822 103.37C485.01 103.28 485.148 103.122 485.217 102.925C485.284 102.729 485.271 102.519 485.182 102.335L483.87 99.6527L486.562 98.3469C486.868 98.1986 487.033 97.8793 486.993 97.5634C486.984 97.4796 486.962 97.3959 486.92 97.3153C486.732 96.9314 486.265 96.7702 485.881 96.9573L483.189 98.2632L481.878 95.5805C481.692 95.1935 481.227 95.0323 480.841 95.2194Z"
      fill="#969696"
    />
    <path
      d="M431.949 159.389C430.081 159.389 428.564 157.876 428.564 156.016C428.564 154.156 430.081 152.643 431.949 152.643C433.816 152.643 435.333 154.156 435.333 156.016C435.333 157.876 433.816 159.389 431.949 159.389ZM431.949 154.446C431.082 154.446 430.372 155.149 430.372 156.016C430.372 156.883 431.078 157.586 431.949 157.586C432.818 157.586 433.524 156.883 433.524 156.016C433.524 155.149 432.818 154.446 431.949 154.446Z"
      fill="#969696"
    />
    <path
      d="M0.414269 206.395C0.262175 206.537 0.174801 206.727 0.168329 206.934C0.161857 207.14 0.236286 207.337 0.378673 207.488L2.42709 209.665L0.24276 211.706C0.0906642 211.847 0.0032907 212.038 -0.0031814 212.244C-0.00965351 212.45 0.0647757 212.647 0.207162 212.799C0.349549 212.95 0.540475 213.037 0.747582 213.044C0.954691 213.05 1.15209 212.976 1.30418 212.834L3.48853 210.793L5.53694 212.969C5.67933 213.121 5.87025 213.208 6.07735 213.215C6.28446 213.221 6.48188 213.147 6.63396 213.005C6.78605 212.863 6.87342 212.673 6.8799 212.467C6.88638 212.26 6.81194 212.063 6.66955 211.912L4.62114 209.736L6.80546 207.694C7.05142 207.466 7.1129 207.111 6.98347 206.818C6.94786 206.74 6.90255 206.666 6.83783 206.602C6.54336 206.289 6.05146 206.276 5.74081 206.566L3.55648 208.607L1.50805 206.431C1.22005 206.118 0.728167 206.102 0.414269 206.395Z"
      fill="#969696"
    />
    <path
      d="M33.7618 243.468C31.8947 243.468 30.377 241.956 30.377 240.096C30.377 238.236 31.8947 236.722 33.7618 236.722C35.629 236.722 37.1467 238.236 37.1467 240.096C37.1436 241.956 35.6258 243.468 33.7618 243.468ZM33.7618 238.526C32.8946 238.526 32.1858 239.228 32.1858 240.096C32.1858 240.963 32.8913 241.666 33.7618 241.666C34.629 241.666 35.3377 240.963 35.3377 240.096C35.3377 239.228 34.629 238.526 33.7618 238.526Z"
      fill="#969696"
    />
    <path
      d="M92.0238 349.448C91.6612 349.448 91.357 349.165 91.3377 348.801C91.315 348.424 91.6063 348.098 91.988 348.08C94.2597 347.952 96.5574 347.725 98.8195 347.408C99.1948 347.356 99.5444 347.617 99.596 347.993C99.6478 348.365 99.3858 348.714 99.0102 348.765C96.7095 349.089 94.373 349.321 92.0624 349.448C92.0495 349.448 92.0365 349.448 92.0238 349.448ZM82.3381 349.419C82.3253 349.419 82.309 349.419 82.293 349.419C79.979 349.277 77.6428 349.031 75.3516 348.691C74.9761 348.638 74.7172 348.285 74.7724 347.912C74.8273 347.537 75.1801 347.28 75.5554 347.334C77.8076 347.669 80.1052 347.908 82.3803 348.051C82.7589 348.073 83.0469 348.399 83.0241 348.779C83.0015 349.143 82.6973 349.419 82.3381 349.419ZM108.411 346.869C108.107 346.869 107.825 346.666 107.744 346.358C107.647 345.99 107.867 345.617 108.236 345.518C110.443 344.942 112.65 344.266 114.796 343.507C115.155 343.382 115.547 343.569 115.676 343.924C115.802 344.281 115.614 344.672 115.259 344.799C113.077 345.57 110.835 346.26 108.589 346.847C108.528 346.863 108.469 346.869 108.411 346.869ZM65.9702 346.713C65.9087 346.713 65.8504 346.706 65.789 346.686C63.5528 346.077 61.3169 345.367 59.139 344.572C58.7829 344.442 58.5984 344.045 58.728 343.692C58.8573 343.337 59.2554 343.152 59.6115 343.281C61.7536 344.063 63.9509 344.761 66.1514 345.362C66.517 345.46 66.734 345.838 66.6337 346.202C66.5494 346.512 66.2744 346.713 65.9702 346.713ZM123.947 341.082C123.695 341.082 123.449 340.943 123.329 340.702C123.161 340.363 123.3 339.952 123.64 339.784C125.682 338.775 127.704 337.667 129.656 336.491C129.983 336.294 130.403 336.397 130.601 336.723C130.798 337.049 130.694 337.469 130.368 337.665C128.387 338.862 126.329 339.985 124.252 341.012C124.154 341.057 124.051 341.082 123.947 341.082ZM50.4889 340.762C50.3853 340.762 50.2785 340.74 50.1782 340.689C48.1136 339.644 46.0653 338.5 44.0914 337.288C43.7677 337.087 43.6674 336.665 43.868 336.343C44.0686 336.019 44.4926 335.921 44.8161 336.12C46.7578 337.312 48.7706 338.442 50.8028 339.467C51.1426 339.639 51.2786 340.05 51.1071 340.389C50.984 340.628 50.7414 340.762 50.4889 340.762ZM137.979 332.279C137.775 332.279 137.571 332.19 137.435 332.016C137.202 331.717 137.254 331.288 137.555 331.051C139.351 329.653 141.108 328.159 142.778 326.614C143.056 326.357 143.493 326.373 143.752 326.65C144.011 326.927 143.995 327.362 143.716 327.621C142.017 329.191 140.231 330.709 138.406 332.132C138.276 332.235 138.128 332.279 137.979 332.279ZM36.5254 331.846C36.3764 331.846 36.2245 331.797 36.0983 331.696C34.2828 330.263 32.5061 328.731 30.817 327.148C30.5387 326.887 30.5257 326.454 30.7878 326.177C31.05 325.9 31.4837 325.886 31.762 326.148C33.4221 327.702 35.1694 329.207 36.9557 330.62C37.2535 330.855 37.302 331.288 37.0658 331.585C36.9267 331.755 36.7261 331.846 36.5254 331.846ZM149.943 320.838C149.784 320.838 149.625 320.782 149.496 320.672C149.205 320.427 149.172 319.996 149.418 319.705C150.894 317.975 152.315 316.162 153.641 314.315C153.861 314.005 154.292 313.933 154.602 314.157C154.913 314.375 154.984 314.804 154.761 315.115C153.412 316.995 151.968 318.839 150.467 320.596C150.334 320.757 150.14 320.838 149.943 320.838ZM24.6393 320.322C24.442 320.322 24.2479 320.237 24.1119 320.076C22.62 318.305 21.1897 316.452 19.8565 314.563C19.6364 314.253 19.7109 313.824 20.0247 313.605C20.3354 313.386 20.7658 313.46 20.9859 313.773C22.2965 315.63 23.7042 317.452 25.1701 319.192C25.416 319.482 25.3772 319.915 25.0859 320.161C24.95 320.266 24.7948 320.322 24.6393 320.322ZM159.366 307.234C159.253 307.234 159.139 307.205 159.036 307.15C158.703 306.966 158.583 306.551 158.764 306.218C159.864 304.229 160.89 302.168 161.819 300.093C161.974 299.747 162.382 299.589 162.728 299.745C163.074 299.899 163.233 300.306 163.078 300.649C162.136 302.76 161.091 304.854 159.971 306.879C159.845 307.105 159.609 307.234 159.366 307.234ZM15.326 306.645C15.0801 306.645 14.8438 306.511 14.7176 306.283C13.6174 304.251 12.5948 302.146 11.6725 300.024C11.5204 299.676 11.6822 299.274 12.0317 299.122C12.3812 298.97 12.7857 299.131 12.9378 299.479C13.8439 301.563 14.8503 303.633 15.9312 305.631C16.1124 305.966 15.9862 306.384 15.6528 306.56C15.5493 306.618 15.436 306.645 15.326 306.645ZM165.861 292.021C165.793 292.021 165.725 292.012 165.657 291.99C165.294 291.876 165.091 291.494 165.204 291.133C165.88 288.962 166.469 286.738 166.958 284.519C167.039 284.148 167.408 283.916 167.776 283.996C168.149 284.076 168.382 284.445 168.301 284.813C167.805 287.066 167.204 289.331 166.518 291.535C166.427 291.832 166.155 292.021 165.861 292.021ZM8.98658 291.372C8.68886 291.372 8.41703 291.177 8.32643 290.88C7.66303 288.674 7.08701 286.408 6.60808 284.141C6.53042 283.771 6.76988 283.407 7.14203 283.328C7.51416 283.253 7.87984 283.491 7.95751 283.862C8.42673 286.088 8.99627 288.321 9.64673 290.487C9.75675 290.851 9.54964 291.233 9.18397 291.343C9.11925 291.36 9.0513 291.372 8.98658 291.372ZM169.142 275.815C169.119 275.815 169.097 275.815 169.074 275.81C168.695 275.774 168.417 275.439 168.456 275.062C168.676 272.802 168.802 270.507 168.828 268.234C168.831 267.856 169.145 267.546 169.524 267.557C169.906 267.559 170.21 267.872 170.204 268.249C170.178 270.56 170.048 272.896 169.825 275.194C169.793 275.549 169.492 275.815 169.142 275.815ZM5.8476 275.14C5.49488 275.14 5.19392 274.872 5.16155 274.515C4.95122 272.213 4.83796 269.875 4.82501 267.566C4.82177 267.189 5.1292 266.878 5.51105 266.876H5.51429C5.8929 266.876 6.20034 267.18 6.20357 267.559C6.21651 269.83 6.32653 272.126 6.53364 274.392C6.56925 274.77 6.2877 275.1 5.9091 275.136C5.88968 275.14 5.86703 275.14 5.8476 275.14ZM169.055 259.286C168.708 259.286 168.407 259.025 168.372 258.674C168.129 256.419 167.789 254.144 167.359 251.909L167.343 251.821C167.272 251.451 167.514 251.089 167.887 251.02C168.262 250.948 168.621 251.19 168.692 251.56L168.708 251.652C169.148 253.927 169.495 256.238 169.741 258.531C169.783 258.909 169.508 259.248 169.129 259.286C169.107 259.282 169.081 259.286 169.055 259.286ZM6.03853 258.605C6.01264 258.605 5.98675 258.605 5.96086 258.603C5.58225 258.561 5.31042 258.219 5.35573 257.844C5.61783 255.548 5.98351 253.237 6.43979 250.973C6.51423 250.602 6.87666 250.361 7.25205 250.435C7.62421 250.508 7.8669 250.87 7.79247 251.245C7.34266 253.472 6.98347 255.745 6.72781 258C6.67927 258.348 6.38155 258.605 6.03853 258.605ZM165.628 243.024C165.336 243.024 165.065 242.836 164.971 242.546C164.278 240.38 163.489 238.218 162.618 236.124C162.473 235.771 162.641 235.371 162.99 235.226C163.343 235.081 163.744 235.248 163.89 235.597C164.777 237.729 165.582 239.924 166.285 242.13C166.401 242.49 166.2 242.878 165.838 242.99C165.767 243.012 165.699 243.024 165.628 243.024ZM9.58201 242.454C9.51082 242.454 9.43962 242.445 9.36843 242.421C9.00599 242.3 8.81184 241.914 8.92832 241.552C9.64997 239.359 10.4784 237.167 11.3845 235.043C11.5333 234.695 11.9379 234.529 12.2873 234.679C12.6368 234.826 12.8019 235.231 12.653 235.579C11.7599 237.671 10.9476 239.824 10.2389 241.979C10.1418 242.276 9.87325 242.454 9.58201 242.454ZM159.023 227.862C158.783 227.862 158.547 227.737 158.421 227.511C157.305 225.531 156.091 223.575 154.809 221.697C154.596 221.385 154.677 220.956 154.991 220.743C155.305 220.53 155.735 220.611 155.949 220.924C157.25 222.836 158.486 224.825 159.622 226.837C159.809 227.165 159.69 227.585 159.359 227.773C159.256 227.833 159.139 227.862 159.023 227.862ZM16.3259 227.353C16.2094 227.353 16.093 227.324 15.9862 227.263C15.6561 227.076 15.5428 226.656 15.7305 226.328C16.8793 224.323 18.1317 222.342 19.4455 220.44C19.6623 220.127 20.0895 220.05 20.4034 220.266C20.7173 220.482 20.7949 220.908 20.5781 221.22C19.2837 223.09 18.054 225.037 16.9246 227.011C16.7952 227.23 16.5654 227.353 16.3259 227.353ZM149.477 214.356C149.286 214.356 149.091 214.275 148.956 214.12C147.46 212.408 145.875 210.735 144.241 209.152C143.969 208.887 143.962 208.452 144.228 208.181C144.493 207.91 144.93 207.904 145.202 208.168C146.865 209.777 148.477 211.48 149.998 213.221C150.247 213.508 150.218 213.94 149.93 214.188C149.8 214.298 149.638 214.356 149.477 214.356ZM25.966 213.904C25.8043 213.904 25.6426 213.85 25.513 213.733C25.2284 213.482 25.1991 213.05 25.4516 212.766C26.9823 211.032 28.6068 209.339 30.2767 207.74C30.5517 207.475 30.9853 207.485 31.2507 207.759C31.5127 208.033 31.5062 208.465 31.2312 208.729C29.5873 210.303 27.992 211.967 26.4872 213.672C26.348 213.824 26.157 213.904 25.966 213.904ZM137.39 203.035C137.244 203.035 137.095 202.99 136.973 202.893C135.163 201.513 133.27 200.192 131.351 198.966C131.031 198.763 130.937 198.338 131.144 198.018C131.348 197.699 131.775 197.606 132.096 197.812C134.047 199.057 135.969 200.401 137.811 201.804C138.112 202.033 138.17 202.465 137.94 202.765C137.804 202.942 137.597 203.035 137.39 203.035ZM38.1176 202.658C37.9105 202.658 37.7034 202.564 37.5674 202.387C37.3377 202.084 37.3991 201.655 37.7001 201.426C39.5511 200.033 41.4799 198.702 43.4408 197.474C43.7612 197.27 44.1883 197.367 44.3923 197.689C44.596 198.009 44.4991 198.434 44.1754 198.637C42.2468 199.847 40.3471 201.155 38.5318 202.526C38.4055 202.613 38.2599 202.658 38.1176 202.658ZM123.271 194.356C123.171 194.356 123.067 194.333 122.97 194.288C120.918 193.295 118.802 192.379 116.676 191.563C116.32 191.428 116.145 191.031 116.281 190.677C116.417 190.322 116.815 190.148 117.171 190.283C119.333 191.112 121.488 192.047 123.572 193.056C123.915 193.221 124.057 193.633 123.889 193.972C123.773 194.214 123.527 194.356 123.271 194.356ZM52.298 194.085C52.0391 194.085 51.7931 193.94 51.6765 193.691C51.5148 193.35 51.6604 192.94 52.0033 192.776C54.0972 191.786 56.2588 190.873 58.4302 190.064C58.7863 189.932 59.1841 190.112 59.3168 190.467C59.4495 190.822 59.2683 191.218 58.9125 191.351C56.7766 192.147 54.6506 193.043 52.5924 194.017C52.4986 194.062 52.3949 194.085 52.298 194.085ZM107.693 188.678C107.638 188.678 107.579 188.671 107.521 188.655C105.311 188.094 103.052 187.623 100.803 187.252C100.428 187.191 100.175 186.837 100.237 186.463C100.298 186.089 100.654 185.837 101.03 185.898C103.314 186.276 105.615 186.756 107.861 187.327C108.23 187.42 108.453 187.794 108.359 188.162C108.278 188.468 108 188.678 107.693 188.678ZM67.9249 188.549C67.6141 188.549 67.3327 188.339 67.2549 188.026C67.1642 187.659 67.3907 187.288 67.7598 187.198C69.1285 186.862 70.5265 186.559 71.9181 186.292C72.8047 186.121 73.7077 185.963 74.6008 185.824C74.9761 185.766 75.3288 186.021 75.3903 186.395C75.4486 186.769 75.193 187.12 74.8175 187.182C73.9407 187.32 73.0507 187.475 72.177 187.643C70.808 187.904 69.4328 188.204 68.0866 188.533C68.0348 188.542 67.9798 188.549 67.9249 188.549ZM91.2761 186.253C91.2665 186.253 91.2567 186.253 91.2437 186.253C90.0367 186.198 88.8136 186.172 87.6064 186.172C86.5354 186.172 85.4513 186.195 84.3801 186.237C84.0048 186.253 83.6811 185.956 83.665 185.579C83.6487 185.202 83.9465 184.883 84.3252 184.867C85.4156 184.825 86.5191 184.802 87.6064 184.802C88.8328 184.802 90.0789 184.831 91.3054 184.886C91.684 184.902 91.9784 185.224 91.9621 185.602C91.946 185.963 91.6418 186.253 91.2761 186.253Z"
      fill="#969696"
    />
    <path
      d="M339.577 287.118C339.18 287.145 338.784 287.167 338.391 287.189C338.011 287.212 337.685 286.921 337.665 286.544C337.643 286.167 337.931 285.845 338.311 285.823C338.313 285.823 338.313 285.823 338.315 285.823C340.569 285.695 342.846 285.512 345.095 285.28C345.475 285.238 345.815 285.517 345.853 285.892C345.893 286.269 345.616 286.609 345.238 286.647C343.357 286.839 341.456 286.995 339.577 287.118ZM328.839 287.413C328.821 287.413 328.803 287.415 328.785 287.413C326.509 287.388 324.201 287.312 321.925 287.18C321.547 287.158 321.257 286.834 321.279 286.455C321.302 286.077 321.628 285.787 322.008 285.809C324.259 285.939 326.545 286.015 328.799 286.037C329.178 286.042 329.485 286.352 329.482 286.731C329.476 287.095 329.194 287.388 328.839 287.413ZM354.677 285.352C354.33 285.374 354.015 285.133 353.955 284.78C353.89 284.407 354.143 284.052 354.518 283.987C356.75 283.61 358.99 283.172 361.191 282.692C361.564 282.612 361.93 282.842 362.013 283.215C362.096 283.585 361.861 283.949 361.49 284.03C359.27 284.516 357.004 284.954 354.755 285.338C354.726 285.347 354.704 285.347 354.677 285.352ZM312.489 286.312C312.446 286.316 312.402 286.312 312.359 286.309C310.098 286.026 307.813 285.686 305.575 285.296C305.199 285.231 304.949 284.878 305.014 284.503C305.079 284.13 305.438 283.88 305.809 283.945C308.03 284.333 310.293 284.668 312.531 284.947C312.911 284.996 313.174 285.338 313.13 285.715C313.085 286.044 312.813 286.294 312.489 286.312ZM370.647 281.698C370.334 281.718 370.033 281.52 369.941 281.205C369.836 280.841 370.046 280.459 370.41 280.354C372.58 279.729 374.758 279.039 376.893 278.309C377.253 278.186 377.644 278.378 377.767 278.735C377.89 279.093 377.7 279.483 377.34 279.606C375.184 280.341 372.984 281.037 370.797 281.669C370.745 281.689 370.696 281.694 370.647 281.698ZM296.362 283.349C296.293 283.353 296.221 283.349 296.154 283.331C293.94 282.79 291.709 282.187 289.517 281.544C289.151 281.437 288.943 281.053 289.05 280.691C289.157 280.327 289.542 280.122 289.906 280.227C292.073 280.865 294.286 281.462 296.48 281.998C296.849 282.089 297.077 282.46 296.985 282.826C296.914 283.127 296.654 283.331 296.362 283.349ZM386.093 276.257C385.809 276.275 385.53 276.114 385.414 275.837C385.264 275.489 385.429 275.084 385.782 274.937C387.864 274.066 389.951 273.135 391.986 272.168C392.33 272.003 392.741 272.148 392.906 272.49C393.069 272.831 392.924 273.24 392.582 273.405C390.527 274.383 388.42 275.323 386.321 276.203C386.242 276.232 386.169 276.252 386.093 276.257ZM280.675 278.557C280.581 278.563 280.485 278.552 280.391 278.516C278.256 277.726 276.107 276.875 274.007 275.984C273.656 275.837 273.495 275.433 273.645 275.084C273.792 274.736 274.197 274.573 274.547 274.725C276.627 275.607 278.754 276.449 280.869 277.232C281.227 277.364 281.408 277.757 281.278 278.117C281.18 278.374 280.939 278.541 280.675 278.557ZM400.801 269.089C400.546 269.105 400.289 268.979 400.158 268.741C399.97 268.41 400.088 267.992 400.419 267.805C402.38 266.706 404.342 265.545 406.252 264.351C406.573 264.152 406.998 264.248 407.199 264.567C407.4 264.891 407.302 265.313 406.982 265.512C405.057 266.715 403.075 267.888 401.096 269.002C401.002 269.053 400.902 269.082 400.801 269.089ZM265.647 272.012C265.529 272.019 265.404 271.996 265.292 271.938C263.259 270.909 261.224 269.819 259.24 268.7C258.91 268.515 258.794 268.095 258.981 267.767C259.169 267.436 259.589 267.32 259.919 267.508C261.881 268.62 263.896 269.698 265.913 270.717C266.253 270.886 266.389 271.3 266.217 271.639C266.103 271.86 265.884 271.996 265.647 272.012ZM414.58 260.296C414.35 260.311 414.12 260.211 413.979 260.012C413.756 259.706 413.823 259.277 414.131 259.054C415.956 257.734 417.77 256.359 419.533 254.957C419.83 254.72 420.263 254.767 420.5 255.061C420.734 255.358 420.69 255.792 420.393 256.026C418.617 257.442 416.78 258.835 414.94 260.164C414.83 260.244 414.703 260.287 414.58 260.296ZM251.473 263.81C251.328 263.819 251.178 263.783 251.051 263.696C249.147 262.446 247.251 261.133 245.41 259.795C245.102 259.574 245.035 259.143 245.26 258.837C245.484 258.531 245.915 258.464 246.221 258.69C248.044 260.014 249.923 261.314 251.808 262.553C252.123 262.763 252.212 263.187 252 263.504C251.882 263.687 251.681 263.797 251.473 263.81ZM427.267 249.984C427.065 249.997 426.858 249.923 426.712 249.763C426.456 249.481 426.476 249.048 426.755 248.791C428.417 247.275 430.066 245.699 431.656 244.102C431.927 243.836 432.362 243.832 432.63 244.1C432.901 244.368 432.903 244.803 432.635 245.071C431.028 246.679 429.366 248.271 427.687 249.803C427.566 249.917 427.418 249.975 427.267 249.984ZM238.328 254.059C238.156 254.07 237.982 254.019 237.844 253.903C236.097 252.447 234.361 250.928 232.685 249.394C232.406 249.135 232.388 248.704 232.645 248.423C232.904 248.146 233.338 248.126 233.619 248.383C235.281 249.903 236.999 251.406 238.73 252.846C239.021 253.09 239.061 253.525 238.818 253.815C238.686 253.965 238.509 254.048 238.328 254.059ZM438.702 238.299C438.528 238.31 438.349 238.254 438.206 238.131C437.918 237.883 437.889 237.448 438.139 237.164C439.62 235.47 441.081 233.714 442.477 231.95C442.714 231.653 443.148 231.602 443.447 231.839C443.744 232.073 443.795 232.506 443.559 232.801C442.149 234.581 440.672 236.352 439.178 238.064C439.051 238.209 438.881 238.288 438.702 238.299ZM226.381 242.894C226.185 242.908 225.984 242.836 225.838 242.682C224.268 241.036 222.718 239.335 221.23 237.622C220.98 237.336 221.013 236.903 221.301 236.655C221.589 236.407 222.022 236.439 222.271 236.727C223.747 238.426 225.28 240.112 226.835 241.74C227.096 242.014 227.087 242.45 226.812 242.711C226.69 242.82 226.538 242.885 226.381 242.894ZM448.737 225.392C448.587 225.403 448.435 225.363 448.304 225.274C447.989 225.057 447.913 224.631 448.125 224.318C449.403 222.465 450.656 220.556 451.844 218.648C452.043 218.325 452.468 218.225 452.792 218.425C453.115 218.625 453.216 219.047 453.015 219.37C451.815 221.298 450.553 223.226 449.262 225.095C449.135 225.281 448.94 225.379 448.737 225.392ZM215.787 230.452C215.563 230.465 215.337 230.372 215.191 230.18C213.822 228.371 212.476 226.504 211.194 224.635C210.981 224.323 211.062 223.896 211.376 223.68C211.69 223.467 212.12 223.548 212.334 223.86C213.605 225.716 214.935 227.563 216.291 229.356C216.521 229.659 216.46 230.088 216.155 230.316C216.045 230.401 215.916 230.445 215.787 230.452ZM457.244 211.432C457.121 211.438 456.996 211.415 456.88 211.351C456.542 211.174 456.415 210.758 456.594 210.422C457.655 208.433 458.68 206.395 459.645 204.364C459.808 204.022 460.219 203.874 460.561 204.035C460.905 204.196 461.053 204.606 460.892 204.947C459.92 206.998 458.881 209.059 457.811 211.064C457.691 211.29 457.474 211.419 457.244 211.432ZM206.69 216.897C206.437 216.913 206.188 216.79 206.052 216.561C204.9 214.611 203.778 212.605 202.722 210.6C202.545 210.264 202.674 209.848 203.011 209.674C203.347 209.497 203.765 209.626 203.939 209.961C204.988 211.948 206.098 213.934 207.24 215.865C207.434 216.191 207.324 216.613 206.997 216.803C206.9 216.858 206.793 216.89 206.69 216.897ZM464.104 196.594C464.008 196.6 463.908 196.584 463.809 196.548C463.459 196.41 463.282 196.013 463.423 195.658C464.249 193.563 465.036 191.418 465.757 189.287C465.882 188.929 466.269 188.736 466.633 188.858C466.991 188.981 467.185 189.371 467.062 189.729C466.332 191.88 465.538 194.043 464.703 196.161C464.6 196.416 464.363 196.577 464.104 196.594ZM199.211 202.387C198.933 202.407 198.658 202.252 198.538 201.981C197.616 199.908 196.733 197.78 195.911 195.665C195.775 195.31 195.949 194.914 196.305 194.778C196.661 194.639 197.059 194.817 197.195 195.172C198.011 197.267 198.885 199.373 199.797 201.427C199.952 201.772 199.794 202.178 199.448 202.333C199.37 202.365 199.289 202.384 199.211 202.387ZM469.22 181.065C469.151 181.069 469.075 181.062 469.001 181.043C468.632 180.946 468.416 180.569 468.512 180.205C469.093 178.025 469.629 175.807 470.1 173.604C470.183 173.234 470.547 172.998 470.92 173.079C471.293 173.159 471.528 173.524 471.447 173.895C470.969 176.116 470.429 178.357 469.843 180.559C469.761 180.846 469.506 181.046 469.22 181.065ZM193.445 187.108C193.134 187.127 192.84 186.937 192.743 186.627C192.066 184.461 191.432 182.249 190.859 180.053C190.762 179.685 190.985 179.311 191.351 179.215C191.72 179.118 192.095 179.34 192.192 179.705C192.762 181.881 193.39 184.07 194.06 186.218C194.173 186.579 193.969 186.963 193.607 187.075C193.555 187.095 193.5 187.104 193.445 187.108ZM472.513 165.057C472.464 165.06 472.415 165.057 472.365 165.05C471.99 164.996 471.729 164.647 471.785 164.273C472.108 162.052 472.383 159.788 472.6 157.551C472.636 157.174 472.975 156.896 473.351 156.935C473.728 156.97 474.007 157.306 473.969 157.683C473.748 159.943 473.469 162.226 473.143 164.47C473.1 164.796 472.83 165.037 472.513 165.057ZM189.471 171.27C189.128 171.293 188.817 171.057 188.749 170.712C188.325 168.488 187.947 166.218 187.623 163.967C187.568 163.593 187.83 163.245 188.209 163.19C188.587 163.139 188.934 163.396 188.989 163.774C189.306 166.002 189.681 168.252 190.102 170.457C190.173 170.828 189.927 171.189 189.555 171.26C189.529 171.267 189.5 171.27 189.471 171.27ZM473.934 148.794C473.909 148.794 473.891 148.797 473.869 148.794C473.489 148.784 473.187 148.465 473.201 148.088C473.27 145.84 473.281 143.564 473.241 141.317C473.234 140.936 473.538 140.627 473.916 140.617C474.298 140.61 474.613 140.91 474.619 141.291C474.662 143.561 474.648 145.859 474.579 148.13C474.568 148.487 474.287 148.771 473.934 148.794ZM187.319 155.084C186.943 155.11 186.617 154.826 186.588 154.452C186.546 153.917 186.51 153.382 186.474 152.85C186.361 151.115 186.28 149.358 186.232 147.623C186.222 147.246 186.516 146.93 186.901 146.917C187.28 146.907 187.597 147.204 187.61 147.584C187.659 149.303 187.74 151.044 187.853 152.76C187.888 153.288 187.924 153.817 187.966 154.346C187.995 154.723 187.711 155.052 187.332 155.081C187.322 155.084 187.319 155.084 187.319 155.084ZM473.482 132.476C473.112 132.498 472.783 132.221 472.752 131.85C472.564 129.616 472.318 127.349 472.019 125.115L471.99 124.899C471.939 124.525 472.205 124.18 472.584 124.128C472.962 124.076 473.308 124.341 473.357 124.718L473.386 124.937C473.683 127.191 473.934 129.477 474.124 131.734C474.157 132.111 473.876 132.443 473.496 132.476C473.494 132.472 473.487 132.476 473.482 132.476ZM187.008 138.763C186.986 138.763 186.96 138.766 186.937 138.763C186.559 138.747 186.261 138.431 186.274 138.05C186.361 135.781 186.503 133.485 186.701 131.225C186.733 130.847 187.067 130.567 187.445 130.599C187.824 130.631 188.105 130.963 188.073 131.341C187.879 133.578 187.736 135.855 187.652 138.099C187.639 138.457 187.358 138.74 187.008 138.763ZM471.146 116.09C470.806 116.113 470.496 115.88 470.429 115.542C469.984 113.336 469.479 111.115 468.934 108.935C468.84 108.568 469.066 108.194 469.434 108.103C469.803 108.01 470.178 108.236 470.27 108.603C470.824 110.802 471.331 113.046 471.78 115.274C471.856 115.645 471.615 116.006 471.24 116.083C471.204 116.087 471.175 116.09 471.146 116.09ZM188.574 122.513C188.526 122.516 188.474 122.513 188.426 122.506C188.05 122.448 187.791 122.097 187.85 121.723C188.199 119.475 188.607 117.206 189.063 114.974C189.138 114.603 189.503 114.365 189.875 114.439C190.247 114.513 190.487 114.877 190.413 115.248C189.959 117.457 189.555 119.704 189.212 121.932C189.157 122.255 188.888 122.49 188.574 122.513ZM467.011 100.297C466.702 100.317 466.41 100.13 466.311 99.8233C465.619 97.6826 464.866 95.5318 464.069 93.4297C463.937 93.0749 464.115 92.6783 464.471 92.5461C464.826 92.4139 465.223 92.5915 465.358 92.9461C466.159 95.0709 466.921 97.2407 467.623 99.4011C467.739 99.7622 467.542 100.149 467.178 100.265C467.125 100.281 467.066 100.291 467.011 100.297ZM192.008 106.52C191.934 106.524 191.856 106.517 191.781 106.498C191.416 106.398 191.199 106.02 191.299 105.653C191.904 103.46 192.571 101.255 193.28 99.0947C193.4 98.7337 193.788 98.5369 194.147 98.6562C194.509 98.7756 194.707 99.1624 194.587 99.5203C193.885 101.661 193.225 103.847 192.626 106.017C192.545 106.304 192.293 106.501 192.008 106.52ZM461.093 85.0756C460.814 85.095 460.541 84.9434 460.423 84.6759C459.487 82.6285 458.49 80.5777 457.458 78.5819C457.284 78.2465 457.416 77.8307 457.755 77.6566C458.095 77.4824 458.51 77.6146 458.685 77.9531C459.726 79.9715 460.733 82.0417 461.678 84.1083C461.837 84.4533 461.68 84.8596 461.339 85.0175C461.254 85.0499 461.173 85.0691 461.093 85.0756ZM197.257 91.034C197.157 91.0405 197.053 91.0244 196.956 90.9858C196.603 90.8437 196.432 90.444 196.574 90.0926C197.425 87.9871 198.341 85.8721 199.296 83.8052C199.454 83.4603 199.862 83.3086 200.208 83.4699C200.554 83.628 200.707 84.0341 200.545 84.3791C199.6 86.4234 198.694 88.5192 197.849 90.6053C197.752 90.86 197.516 91.0179 197.257 91.034ZM453.462 70.6406C453.212 70.6567 452.964 70.5373 452.827 70.3084C451.666 68.3867 450.441 66.4684 449.186 64.6014C448.976 64.2854 449.061 63.8598 449.374 63.6504C449.691 63.4407 450.118 63.5247 450.33 63.8373C451.594 65.7203 452.83 67.6581 454.002 69.5992C454.199 69.9248 454.092 70.3439 453.768 70.5406C453.674 70.6018 453.569 70.6342 453.462 70.6406ZM204.247 76.2541C204.12 76.2637 203.991 76.2346 203.874 76.1735C203.541 75.9928 203.415 75.5768 203.599 75.2416C204.687 73.2458 205.836 71.25 207.02 69.3089C207.217 68.9865 207.641 68.8802 207.965 69.0767C208.292 69.2734 208.395 69.6959 208.198 70.0183C207.026 71.9431 205.887 73.9195 204.813 75.8961C204.693 76.1121 204.477 76.2411 204.247 76.2541ZM444.229 57.1793C444.01 57.192 443.782 57.1018 443.639 56.9149C442.265 55.135 440.824 53.3681 439.368 51.6561C439.122 51.3658 439.158 50.9337 439.446 50.6887C439.736 50.4438 440.172 50.4791 440.418 50.7662C441.89 52.4943 443.34 54.2807 444.731 56.0764C444.964 56.3763 444.908 56.8084 444.604 57.0373C444.49 57.1243 444.358 57.1694 444.229 57.1793ZM212.877 62.3671C212.725 62.3767 212.57 62.3381 212.437 62.2445C212.126 62.0286 212.049 61.5996 212.269 61.2901C213.576 59.433 214.945 57.579 216.34 55.783C216.573 55.4831 217.007 55.4284 217.307 55.6606C217.608 55.8926 217.663 56.3247 217.43 56.6246C216.049 58.4011 214.693 60.2391 213.398 62.0802C213.272 62.2541 213.078 62.3541 212.877 62.3671ZM433.508 44.8464C433.314 44.8592 433.117 44.7884 432.968 44.6399C431.397 43.0279 429.766 41.4318 428.12 39.8971C427.841 39.6392 427.829 39.204 428.089 38.9267C428.346 38.6493 428.783 38.6364 429.063 38.8943C430.722 40.4453 432.369 42.0573 433.955 43.6824C434.221 43.9533 434.214 44.3885 433.942 44.6528C433.819 44.7723 433.662 44.8366 433.508 44.8464ZM223.025 49.5473C222.848 49.5602 222.666 49.5022 222.524 49.3764C222.239 49.125 222.213 48.6929 222.466 48.4091C223.973 46.7101 225.546 45.0237 227.136 43.3986C227.4 43.1277 227.838 43.1213 228.11 43.3859C228.381 43.6502 228.387 44.0855 228.121 44.3563C226.549 45.9652 224.994 47.6354 223.497 49.3184C223.372 49.4604 223.2 49.5377 223.025 49.5473ZM421.447 33.8C421.28 33.8096 421.108 33.7614 420.965 33.6453C419.22 32.2202 417.419 30.8175 415.605 29.4763C415.302 29.2506 415.237 28.8216 415.465 28.5155C415.69 28.2123 416.121 28.148 416.427 28.3735C418.257 29.7278 420.075 31.1432 421.838 32.5813C422.133 32.8197 422.175 33.2552 421.936 33.5452C421.807 33.7033 421.628 33.7871 421.447 33.8ZM234.562 37.9625C234.359 37.9754 234.151 37.8982 234.006 37.7369C233.749 37.4563 233.776 37.021 234.057 36.7663C235.75 35.251 237.5 33.7549 239.264 32.32C239.559 32.0815 239.993 32.1233 240.232 32.4167C240.471 32.7101 240.428 33.1422 240.133 33.3809C238.391 34.7995 236.655 36.2826 234.98 37.7852C234.859 37.8948 234.712 37.9529 234.562 37.9625ZM408.202 24.1851C408.059 24.195 407.914 24.1595 407.784 24.0755C405.888 22.8568 403.937 21.6671 401.985 20.5386C401.657 20.3483 401.545 19.9292 401.737 19.6003C401.927 19.2714 402.349 19.1618 402.677 19.352C404.648 20.4902 406.62 21.6929 408.535 22.9246C408.857 23.131 408.946 23.5532 408.738 23.8725C408.613 24.0628 408.412 24.1724 408.202 24.1851ZM247.34 27.7641C247.112 27.7802 246.878 27.677 246.737 27.4772C246.516 27.1677 246.587 26.7387 246.898 26.5197C248.752 25.2074 250.662 23.9208 252.574 22.6955C252.894 22.4892 253.32 22.5828 253.526 22.9019C253.729 23.2212 253.638 23.6468 253.318 23.85C251.422 25.0622 249.532 26.3359 247.698 27.6353C247.588 27.7159 247.465 27.7576 247.34 27.7641ZM393.945 16.1245C393.827 16.131 393.708 16.1116 393.594 16.0536C391.573 15.0573 389.495 14.0933 387.424 13.1937C387.073 13.0421 386.915 12.6391 387.067 12.2909C387.219 11.9427 387.623 11.7847 387.974 11.9362C390.065 12.8455 392.158 13.816 394.202 14.8219C394.544 14.9896 394.684 15.4023 394.515 15.7409C394.403 15.973 394.18 16.1084 393.945 16.1245ZM261.197 19.0909C260.938 19.107 260.683 18.978 260.552 18.7362C260.366 18.4041 260.489 17.9882 260.822 17.8044C262.819 16.7081 264.868 15.6473 266.912 14.6478C267.256 14.4802 267.667 14.622 267.834 14.9606C268.004 15.3024 267.861 15.7118 267.522 15.8795C265.495 16.8694 263.467 17.9205 261.49 19.0038C261.392 19.0586 261.296 19.0844 261.197 19.0909ZM378.85 9.73082C378.761 9.73725 378.667 9.72437 378.573 9.69212C376.447 8.9312 374.273 8.21219 372.113 7.55443C371.751 7.44481 371.543 7.06112 371.657 6.69677C371.766 6.33566 372.153 6.12931 372.519 6.24214C374.7 6.90635 376.893 7.63182 379.042 8.40241C379.402 8.53139 379.585 8.92475 379.456 9.27941C379.36 9.54381 379.116 9.7147 378.85 9.73082ZM275.977 12.0491C275.689 12.0684 275.41 11.904 275.293 11.6234C275.148 11.272 275.32 10.8722 275.669 10.7271C277.775 9.86946 279.936 9.04727 282.08 8.28956C282.44 8.16382 282.831 8.35083 282.96 8.70549C283.088 9.06339 282.898 9.45353 282.543 9.58248C280.416 10.3337 278.278 11.1463 276.194 11.9975C276.122 12.0265 276.051 12.0426 275.977 12.0491ZM363.117 5.10077C363.052 5.10398 362.985 5.10077 362.918 5.08464C360.713 4.57198 358.47 4.10447 356.247 3.6982C355.872 3.6305 355.626 3.2726 355.693 2.89858C355.762 2.52456 356.122 2.27952 356.497 2.34722C358.742 2.75672 361.008 3.22745 363.23 3.74657C363.599 3.83361 363.834 4.20118 363.744 4.57198C363.671 4.87506 363.411 5.08141 363.117 5.10077ZM291.472 6.74192C291.154 6.76126 290.853 6.56134 290.766 6.24214C290.663 5.87781 290.875 5.49734 291.242 5.39739C293.433 4.78478 295.669 4.21408 297.892 3.70466C298.263 3.62081 298.631 3.84973 298.716 4.22054C298.801 4.59132 298.571 4.95888 298.198 5.04273C295.998 5.5457 293.782 6.10995 291.615 6.71935C291.568 6.73223 291.521 6.73868 291.472 6.74192ZM346.961 2.30209C346.918 2.30531 346.878 2.30531 346.838 2.29885C344.597 2.04092 342.319 1.83779 340.067 1.68625C339.689 1.66046 339.401 1.33481 339.426 0.954344C339.452 0.577104 339.779 0.290142 340.161 0.315937C342.435 0.467479 344.733 0.673831 346.996 0.934997C347.374 0.976914 347.646 1.31869 347.6 1.69593C347.559 2.03125 347.287 2.28273 346.961 2.30209ZM307.471 3.23069C307.12 3.25324 306.803 3.0082 306.745 2.65675C306.685 2.28273 306.94 1.9313 307.315 1.87004C308.716 1.64434 310.143 1.43476 311.555 1.25098C312.406 1.13813 313.266 1.03495 314.113 0.938222C314.49 0.896307 314.832 1.16715 314.877 1.54116C314.919 1.9184 314.649 2.25694 314.271 2.30209C313.431 2.39882 312.58 2.50199 311.738 2.61162C310.34 2.7954 308.926 3.00177 307.538 3.22424C307.516 3.22745 307.494 3.22745 307.471 3.23069ZM330.602 1.37027C330.586 1.37027 330.572 1.37027 330.557 1.37027C328.305 1.37027 326.015 1.42509 323.761 1.53149C323.381 1.55083 323.057 1.25742 323.04 0.880185C323.019 0.506169 323.308 0.186967 323.683 0.161172C323.685 0.161172 323.69 0.161172 323.696 0.161172C325.975 0.0515473 328.28 -0.00326538 330.557 -0.00326538C330.939 -0.00326538 331.245 0.30304 331.245 0.683504C331.245 1.05107 330.961 1.34771 330.602 1.37027Z"
      fill="#969696"
    />
    <path
      d="M353.225 85.3176V321.38H352.604L334.665 303.988L316.729 321.38H314.859L296.92 303.988L278.98 321.38H277.139L259.231 304.019L241.326 321.38H239.49L221.566 304.001L203.638 321.38H201.748L183.821 304.001L165.893 321.38H164.026L146.134 304.032L128.242 321.38H127.06V19.7101H287.377L353.225 85.3176Z"
      fill="#D3D3D3"
    />
    <path d="M353.225 85.3176H287.377V19.7101L353.225 85.3176Z" fill="#969696" />
  </g>
  <path
    d="M269.241 404.588C265.08 408.732 258.336 408.732 254.182 404.588L189.511 340.153L181.293 331.966C187.278 328.031 192.407 322.915 196.356 316.958L269.241 389.579C273.402 393.72 273.402 400.44 269.241 404.588Z"
    fill="#015AA4"
  />
  <path
    d="M199.631 320.216L216.482 337.011C212.533 342.974 207.404 348.084 201.419 352.016L192.787 343.412L184.569 335.225C190.553 331.292 195.686 326.179 199.631 320.216Z"
    fill="#0D173C"
  />
  <path
    d="M216.426 285.25C216.313 282.534 216.024 279.86 215.579 277.239C213.047 262.344 205.352 249.196 194.386 239.7C183.104 229.918 168.366 224 152.241 224C116.763 224 88 252.657 88 288.005C88 290.453 88.1384 292.868 88.4062 295.244C89.2486 302.692 91.3702 309.752 94.5546 316.2C99.1259 325.47 105.879 333.472 114.149 339.551C115.493 340.541 116.88 341.474 118.301 342.362C128.153 348.477 139.784 352.013 152.241 352.013C166.137 352.013 178.999 347.619 189.507 340.147C195.323 336.015 200.417 330.941 204.57 325.145C208.739 319.322 211.954 312.772 213.985 305.727C215.605 300.098 216.478 294.159 216.478 288.014C216.482 287.084 216.464 286.163 216.426 285.25ZM152.241 340.63C140.683 340.63 129.998 336.933 121.3 330.66C112.861 324.572 106.298 316.057 102.643 306.138C100.56 300.485 99.4284 294.382 99.4284 288.011C99.4284 285.614 99.5883 283.253 99.9035 280.942C102.531 261.426 115.895 245.305 133.878 238.657C139.599 236.543 145.786 235.389 152.245 235.389C154.583 235.389 156.881 235.541 159.137 235.833C169.844 237.22 179.544 241.805 187.243 248.597C198.175 258.236 205.062 272.323 205.062 288.011C205.062 288.81 205.045 289.606 205.006 290.399C204.833 294.26 204.241 298.017 203.278 301.618C201.8 307.143 199.441 312.304 196.364 316.952C192.415 322.915 187.287 328.031 181.302 331.96C179.833 332.923 178.317 333.815 176.748 334.635C173.404 336.382 169.848 337.78 166.128 338.788C161.699 339.989 157.045 340.63 152.241 340.63Z"
    fill="#0070B3"
  />
  <path
    d="M112.248 293.795C109.526 293.795 107.318 291.598 107.318 288.885C107.318 276.697 112.084 265.236 120.734 256.617C129.384 248 140.886 243.251 153.118 243.251C155.84 243.251 158.048 245.451 158.048 248.164C158.048 250.875 155.84 253.075 153.118 253.075C143.517 253.075 134.496 256.799 127.708 263.563C120.92 270.325 117.182 279.314 117.182 288.879C117.182 291.598 114.974 293.795 112.248 293.795Z"
    fill="white"
  />
  <defs>
    <clipPath id="clip0_1424_9534">
      <rect width="487" height="393" fill="white" />
    </clipPath>
  </defs>
</svg>
