<svg viewBox="0 0 561 416" fill="none" xmlns="http://www.w3.org/2000/svg">
  <g clip-path="url(#clip0_1424_9263)">
    <path d="M536.012 361.291H24.9684V361.654H536.012V361.291Z" fill="#EBEBEB" />
    <path d="M523.639 380.782H483.363V381.145H523.639V380.782Z" fill="#EBEBEB" />
    <path d="M379.249 384.165H368.673V384.528H379.249V384.165Z" fill="#EBEBEB" />
    <path d="M482.158 369.642H458.807V370.005H482.158V369.642Z" fill="#EBEBEB" />
    <path d="M92.822 371.591H40.268V372.05H92.822V371.591Z" fill="#EBEBEB" />
    <path d="M111.296 371.591H103.646V372.05H111.296V371.591Z" fill="#EBEBEB" />
    <path d="M250.331 376.789H136.349V377.152H250.331V376.789Z" fill="#EBEBEB" />
    <path d="M328.741 109.169H496.348V0H328.741V109.169Z" fill="#E6E6E6" />
    <path d="M323.654 109.169H493.862V0H323.654V109.169Z" fill="#F0F0F0" />
    <path d="M328.741 130.628H496.348V109.207H328.741V130.628Z" fill="#E6E6E6" />
    <path d="M315.144 130.628H485.352V109.207H315.144V130.628Z" fill="#F0F0F0" />
    <path d="M486.767 102.156V7.07025H330.826V102.156H486.767Z" fill="#FAFAFA" />
    <path d="M451.635 102.041L431.669 7.07025H400.669L420.482 102.041H451.635Z" fill="white" />
    <path
      d="M483.497 94.971C483.622 94.9578 483.739 94.9007 483.826 94.8098C483.914 94.7189 483.966 94.6 483.975 94.4742V11.7519C483.952 11.6392 483.891 11.5377 483.802 11.4648C483.714 11.3919 483.602 11.3521 483.487 11.3521C483.372 11.3521 483.261 11.3919 483.172 11.4648C483.083 11.5377 483.022 11.6392 482.999 11.7519V94.4169C483.003 94.5532 483.055 94.684 483.146 94.7855C483.237 94.8871 483.361 94.9529 483.497 94.971Z"
      fill="#F0F0F0"
    />
    <path d="M413.922 102.041L393.975 7.07025H381.85L401.759 102.041H413.922Z" fill="white" />
    <path d="M331.744 102.099V7.07025H330.883V102.099H331.744Z" fill="#E6E6E6" />
    <path opacity="0.6" d="M321.971 17.8094H489.578L490.19 9.93658H322.564L321.971 17.8094Z" fill="#EBEBEB" />
    <path opacity="0.6" d="M321.971 30.8799H489.578L490.19 23.0071H322.564L321.971 30.8799Z" fill="#EBEBEB" />
    <path opacity="0.6" d="M321.971 43.9504H489.578L490.19 36.0775H322.564L321.971 43.9504Z" fill="#EBEBEB" />
    <path opacity="0.6" d="M321.971 57.0209H489.578L490.19 49.148H322.564L321.971 57.0209Z" fill="#EBEBEB" />
    <path opacity="0.6" d="M321.971 70.1296H489.578L490.19 62.2567H322.564L321.971 70.1296Z" fill="#EBEBEB" />
    <path opacity="0.6" d="M321.971 83.1618H489.578L490.19 75.2889H322.564L321.971 83.1618Z" fill="#EBEBEB" />
    <path d="M472.309 281.894H437.158V288.792H472.309V281.894Z" fill="#E6E6E6" />
    <path d="M370.93 361.33H377.375V202.726H370.93V361.33Z" fill="#E6E6E6" />
    <path d="M348.401 288.85H437.196V281.951H348.401V288.85Z" fill="#F5F5F5" />
    <path d="M472.309 319.653H437.158V326.551H472.309V319.653Z" fill="#E6E6E6" />
    <path d="M348.401 326.532H437.196V319.634H348.401V326.532Z" fill="#F5F5F5" />
    <path d="M472.309 206.49H437.158V213.446H472.309V206.49Z" fill="#E6E6E6" />
    <path d="M348.401 213.446H437.196V206.548H348.401V213.446Z" fill="#F5F5F5" />
    <path d="M472.309 244.25H437.158V251.148H472.309V244.25Z" fill="#E6E6E6" />
    <path d="M348.401 251.052H437.196V244.154H348.401V251.052Z" fill="#F5F5F5" />
    <path d="M459.629 361.33H465.998V202.726H459.553L459.629 361.33Z" fill="#E6E6E6" />
    <path d="M430.656 361.33H437.101V202.726H430.656V361.33Z" fill="#F5F5F5" />
    <path d="M348.478 361.33H354.942V202.726H348.478V361.33Z" fill="#F5F5F5" />
    <path d="M55.8736 361.291H122.274V233.128H55.8736V361.291Z" fill="#E6E6E6" />
    <path d="M73.602 361.291H55.9501V343.616H92.2866L73.602 361.291Z" fill="#FAFAFA" />
    <path d="M236.887 361.291H303.287V233.128H236.887V361.291Z" fill="#E6E6E6" />
    <path d="M55.931 355.196H252.358V233.09H55.931V355.196Z" fill="#FAFAFA" />
    <path d="M234.592 361.291H252.358V343.616H216.022L234.592 361.291Z" fill="#FAFAFA" />
    <path d="M69.6815 309.277H238.627V278.703H69.6815V309.277Z" fill="#F0F0F0" />
    <path d="M69.6815 346.272H238.627V315.698H69.6815V346.272Z" fill="#F0F0F0" />
    <path
      d="M101.811 281.894H206.536C207.269 281.897 207.996 281.755 208.675 281.477C209.353 281.198 209.97 280.79 210.49 280.273C211.011 279.757 211.424 279.143 211.707 278.467C211.99 277.791 212.137 277.066 212.14 276.333V276.085H96.2262V276.505C96.2662 277.955 96.8734 279.331 97.9174 280.339C98.9614 281.346 100.359 281.905 101.811 281.894Z"
      fill="#FAFAFA"
    />
    <path d="M69.6815 272.148H238.627V241.574H69.6815V272.148Z" fill="#F0F0F0" />
    <path
      d="M101.811 244.861H206.536C207.271 244.864 207.999 244.721 208.679 244.442C209.359 244.163 209.977 243.752 210.497 243.234C211.018 242.715 211.431 242.099 211.713 241.421C211.995 240.743 212.14 240.016 212.14 239.281V238.937H96.2262V239.281C96.2237 240.015 96.3664 240.741 96.6461 241.419C96.9259 242.098 97.3371 242.714 97.8562 243.232C98.3752 243.751 98.9919 244.162 99.6705 244.441C100.349 244.721 101.076 244.864 101.811 244.861Z"
      fill="#FAFAFA"
    />
    <path
      d="M101.811 319.061H206.536C207.271 319.063 207.999 318.921 208.679 318.641C209.359 318.362 209.977 317.952 210.497 317.433C211.018 316.915 211.431 316.299 211.713 315.621C211.995 314.942 212.14 314.215 212.14 313.481V313.118H96.2262V313.481C96.2649 314.949 96.8656 316.345 97.9046 317.384C98.9436 318.422 100.342 319.022 101.811 319.061Z"
      fill="#FAFAFA"
    />
    <path d="M66.4494 109.169H234.056V0H66.4494V109.169Z" fill="#E6E6E6" />
    <path d="M61.3623 109.169H231.57V0H61.3623V109.169Z" fill="#F0F0F0" />
    <path d="M66.4494 130.628H234.056V109.207H66.4494V130.628Z" fill="#E6E6E6" />
    <path d="M52.9093 130.628H223.117V109.207H52.9093V130.628Z" fill="#F0F0F0" />
    <path d="M224.494 102.06V7.07025H68.5722V102.06H224.494Z" fill="#FAFAFA" />
    <path d="M189.381 102.041L169.435 7.07025H138.3L158.247 102.041H189.381Z" fill="white" />
    <path
      d="M221.205 94.971C221.33 94.9578 221.447 94.9007 221.534 94.8098C221.622 94.7189 221.674 94.6 221.683 94.4742V11.7519C221.66 11.6392 221.599 11.5377 221.51 11.4648C221.421 11.3919 221.31 11.3521 221.195 11.3521C221.08 11.3521 220.969 11.3919 220.88 11.4648C220.791 11.5377 220.73 11.6392 220.707 11.7519V94.4169C220.765 94.7799 220.899 94.971 221.205 94.971Z"
      fill="#F0F0F0"
    />
    <path d="M151.553 102.041L131.606 7.07025H119.577L139.524 102.041H151.553Z" fill="white" />
    <path d="M69.4711 102.118V7.07025H68.6296V102.118H69.4711Z" fill="#E6E6E6" />
    <path opacity="0.6" d="M59.7367 17.8094H227.344L227.936 9.93658H60.3296L59.7367 17.8094Z" fill="#EBEBEB" />
    <path opacity="0.6" d="M59.7367 22.3574H227.344L227.936 14.3699H60.3296L59.7367 22.3574Z" fill="#EBEBEB" />
    <path opacity="0.6" d="M59.7367 26.8862H227.344L227.936 18.8987H60.3296L59.7367 26.8862Z" fill="#EBEBEB" />
    <path opacity="0.6" d="M59.7367 31.3576H227.344L227.936 23.3701H60.3296L59.7367 31.3576Z" fill="#EBEBEB" />
    <path opacity="0.6" d="M59.7367 35.8291H227.344L227.936 27.8416H60.3296L59.7367 35.8291Z" fill="#EBEBEB" />
    <path opacity="0.6" d="M59.7367 40.3197H227.344L227.936 32.3322H60.3296L59.7367 40.3197Z" fill="#EBEBEB" />
    <path d="M93.1663 229.306H98.9036V165.024H93.1663V229.306Z" fill="#F5F5F5" />
    <path d="M94.0269 229.211H95.6142V164.948H94.0269V229.211Z" fill="#FAFAFA" />
    <path d="M96.3409 229.211H96.8955V164.948H96.2836L96.3409 229.211Z" fill="#FAFAFA" />
    <path
      d="M74.6921 233.243H117.512C117.514 232.54 117.377 231.844 117.109 231.195C116.841 230.546 116.446 229.956 115.948 229.46C115.45 228.965 114.858 228.572 114.208 228.307C113.557 228.041 112.86 227.906 112.157 227.911H80.0469C79.341 227.896 78.6393 228.023 77.9839 228.285C77.3284 228.547 76.7327 228.939 76.2326 229.437C75.7325 229.935 75.3382 230.529 75.0735 231.183C74.8087 231.837 74.679 232.537 74.6921 233.243Z"
      fill="#F0F0F0"
    />
    <path
      d="M85.6312 204.923C85.8562 204.929 86.0799 204.888 86.2887 204.805C86.4976 204.721 86.6873 204.596 86.8464 204.437C87.0056 204.278 87.1307 204.088 87.2144 203.88C87.2981 203.671 87.3386 203.448 87.3333 203.223V161.183C87.3333 160.732 87.154 160.3 86.8348 159.981C86.5156 159.662 86.0827 159.483 85.6312 159.483C85.1798 159.483 84.7469 159.662 84.4277 159.981C84.1085 160.3 83.9292 160.732 83.9292 161.183V203.223C83.975 203.658 84.169 204.065 84.4788 204.374C84.7887 204.684 85.1955 204.878 85.6312 204.923Z"
      fill="#F0F0F0"
    />
    <path d="M70.1213 180.235H122.006L116.02 144.157H76.1455L70.1213 180.235Z" fill="#E0E0E0" />
    <path
      d="M280.49 416C410.747 416 516.333 409.885 516.333 402.318C516.333 394.751 410.747 388.655 280.49 388.655C150.234 388.655 44.6475 394.77 44.6475 402.318C44.6475 409.866 150.234 416 280.49 416Z"
      fill="#F5F5F5"
    />
    <path d="M103.073 143.412L101.849 143.508L103.474 165.827H104.679L103.073 143.412Z" fill="#015AA4" />
    <path d="M105.521 177.292H104.316L104.928 185.738H106.133L105.521 177.292Z" fill="#015AA4" />
    <path
      d="M387.167 279.964H126.749C123.857 279.914 121.085 278.798 118.967 276.83C116.848 274.861 115.533 272.18 115.274 269.301L102.633 92.4869C102.524 91.1171 102.702 89.7396 103.156 88.4425C103.609 87.1453 104.329 85.957 105.269 84.9535C106.208 83.9501 107.347 83.1534 108.612 82.6146C109.877 82.0758 111.241 81.8066 112.616 81.8242H373.053C375.945 81.8739 378.717 82.9902 380.835 84.9585C382.953 86.9269 384.268 89.6082 384.528 92.4869L397.303 269.301C397.384 270.678 397.181 272.056 396.708 273.351C396.234 274.646 395.499 275.83 394.549 276.829C393.599 277.829 392.453 278.623 391.184 279.162C389.914 279.701 388.546 279.974 387.167 279.964Z"
      fill="#015AA4"
    />
    <path
      d="M388.142 279.964H127.724C124.832 279.914 122.06 278.798 119.942 276.83C117.824 274.861 116.509 272.18 116.25 269.301L103.513 92.4869C103.403 91.1171 103.581 89.7396 104.035 88.4425C104.489 87.1453 105.209 85.957 106.148 84.9535C107.088 83.9501 108.227 83.1534 109.492 82.6146C110.757 82.0758 112.12 81.8066 113.496 81.8242H374.028C376.92 81.8739 379.692 82.9902 381.81 84.9585C383.929 86.9269 385.244 89.6082 385.503 92.4869L398.278 269.301C398.371 270.68 398.176 272.063 397.707 273.363C397.237 274.663 396.503 275.852 395.551 276.854C394.598 277.856 393.448 278.65 392.173 279.185C390.897 279.72 389.525 279.986 388.142 279.964Z"
      fill="#015AA4"
    />
    <path
      opacity="0.5"
      d="M388.142 279.964H127.724C124.832 279.914 122.06 278.798 119.942 276.83C117.824 274.861 116.509 272.18 116.25 269.301L103.513 92.4869C103.403 91.1171 103.581 89.7396 104.035 88.4425C104.489 87.1453 105.209 85.957 106.148 84.9535C107.088 83.9501 108.227 83.1534 109.492 82.6146C110.757 82.0758 112.12 81.8066 113.496 81.8242H374.028C376.92 81.8739 379.692 82.9902 381.81 84.9585C383.929 86.9269 385.244 89.6082 385.503 92.4869L398.278 269.301C398.371 270.68 398.176 272.063 397.707 273.363C397.237 274.663 396.503 275.852 395.551 276.854C394.598 277.856 393.448 278.65 392.173 279.185C390.897 279.72 389.525 279.986 388.142 279.964Z"
      fill="white"
    />
    <path
      d="M374.2 87.1555H112.884C106.19 87.767 107.529 97.7992 114.337 97.7992H375.233C381.927 97.7992 381.812 87.767 375.118 87.1555H374.2Z"
      fill="#015AA4"
    />
    <path
      d="M120.553 92.4869C120.585 92.8066 120.549 93.1296 120.447 93.4343C120.345 93.739 120.179 94.0183 119.96 94.2535C119.74 94.4888 119.473 94.6745 119.177 94.7982C118.88 94.922 118.56 94.9809 118.238 94.971C117.576 94.9618 116.939 94.7127 116.447 94.2698C115.955 93.827 115.64 93.2206 115.561 92.5633C115.524 92.2371 115.559 91.9069 115.664 91.5956C115.768 91.2843 115.939 90.9996 116.165 90.7612C116.39 90.5228 116.666 90.3365 116.971 90.2154C117.276 90.0943 117.604 90.0413 117.932 90.0601C118.587 90.0874 119.21 90.3466 119.69 90.7914C120.17 91.2361 120.476 91.8372 120.553 92.4869Z"
      fill="#FAFAFA"
    />
    <path
      d="M128.814 92.4869C128.847 92.8066 128.811 93.1296 128.709 93.4343C128.607 93.739 128.44 94.0183 128.221 94.2535C128.002 94.4888 127.735 94.6745 127.438 94.7982C127.142 94.922 126.822 94.9809 126.5 94.971C125.839 94.9579 125.205 94.7073 124.713 94.2652C124.221 93.8231 123.905 93.219 123.823 92.5633C123.802 92.2489 123.846 91.9334 123.953 91.637C124.06 91.3406 124.228 91.0697 124.446 90.8415C124.663 90.6133 124.926 90.4328 125.217 90.3114C125.508 90.19 125.821 90.1305 126.137 90.1365C126.8 90.1094 127.448 90.3384 127.947 90.776C128.445 91.2137 128.756 91.8264 128.814 92.4869Z"
      fill="#FAFAFA"
    />
    <path
      d="M137.21 92.4869C137.243 92.8066 137.207 93.1296 137.105 93.4343C137.002 93.739 136.836 94.0183 136.617 94.2535C136.398 94.4888 136.131 94.6745 135.834 94.7982C135.537 94.922 135.217 94.9809 134.896 94.9711C134.235 94.9579 133.6 94.7073 133.109 94.2652C132.617 93.8231 132.301 93.219 132.218 92.5633C132.197 92.2489 132.242 91.9334 132.349 91.637C132.456 91.3406 132.624 91.0697 132.841 90.8415C133.059 90.6133 133.322 90.4328 133.613 90.3114C133.904 90.1901 134.217 90.1305 134.532 90.1365C135.186 90.1438 135.816 90.3849 136.307 90.8161C136.798 91.2473 137.119 91.84 137.21 92.4869Z"
      fill="#FAFAFA"
    />
    <path
      d="M381.315 262.288H132.104C131.058 262.296 130.048 261.905 129.281 261.195C128.514 260.485 128.046 259.509 127.973 258.467L117.378 112.933C117.343 112.437 117.412 111.939 117.581 111.471C117.75 111.003 118.015 110.576 118.359 110.216C118.703 109.856 119.118 109.572 119.578 109.382C120.038 109.192 120.533 109.1 121.031 109.112H370.261C371.305 109.109 372.312 109.501 373.079 110.21C373.845 110.92 374.314 111.893 374.392 112.933L384.967 258.409C384.983 259.404 384.611 260.365 383.929 261.089C383.247 261.814 382.309 262.244 381.315 262.288Z"
      fill="white"
    />
    <path d="M276.226 206.853L272.229 150.807L259.932 143.431H226.12L230.767 206.853H276.226Z" fill="white" />
    <path
      d="M276.226 207.465H230.614C230.47 207.476 230.327 207.43 230.216 207.337C230.106 207.244 230.036 207.112 230.021 206.968L225.393 143.565C225.376 143.391 225.416 143.217 225.508 143.068C225.57 142.998 225.647 142.941 225.732 142.902C225.818 142.862 225.911 142.841 226.005 142.839H259.817C259.882 142.831 259.948 142.837 260.011 142.857C260.074 142.876 260.131 142.909 260.18 142.953L272.458 150.387C272.535 150.445 272.597 150.52 272.64 150.606C272.683 150.692 272.706 150.787 272.707 150.884L276.723 206.911C276.741 207.087 276.693 207.264 276.589 207.408C276.666 207.465 276.474 207.465 276.226 207.465ZM231.226 206.376H275.633L271.617 151.304L259.683 144.157H226.732L231.226 206.376Z"
      fill="#015AA4"
    />
    <path d="M272.21 150.807L259.932 143.431L264.426 153.234L272.21 150.807Z" fill="#EBEBEB" />
    <path
      d="M264.426 153.845C264.196 153.845 263.948 153.731 263.948 153.482L259.454 143.68C259.32 143.431 259.454 143.183 259.568 142.953C259.67 142.875 259.789 142.821 259.915 142.798C260.042 142.775 260.172 142.782 260.295 142.82L272.592 150.215C272.649 150.235 272.7 150.267 272.744 150.31C272.787 150.352 272.82 150.402 272.842 150.459C272.864 150.515 272.873 150.575 272.87 150.635C272.866 150.695 272.85 150.754 272.822 150.807C272.822 151.056 272.592 151.17 272.458 151.304L264.674 153.731C264.609 153.798 264.52 153.839 264.426 153.845ZM261.366 144.998L264.885 152.508L270.986 150.597L261.366 144.998Z"
      fill="#015AA4"
    />
    <path
      d="M245.225 172.114C245.256 172.447 245.214 172.783 245.103 173.099C244.992 173.414 244.815 173.703 244.583 173.944C244.35 174.185 244.069 174.373 243.757 174.496C243.446 174.619 243.111 174.673 242.777 174.655C242.076 174.662 241.399 174.404 240.881 173.933C240.363 173.461 240.043 172.811 239.985 172.114C239.954 171.782 239.995 171.448 240.105 171.133C240.215 170.819 240.391 170.532 240.621 170.291C240.851 170.05 241.13 169.861 241.439 169.737C241.749 169.613 242.081 169.557 242.414 169.572C243.116 169.564 243.796 169.822 244.317 170.293C244.838 170.764 245.162 171.414 245.225 172.114Z"
      fill="#015AA4"
    />
    <path
      d="M261.882 172.114C261.913 172.445 261.872 172.779 261.762 173.094C261.652 173.408 261.476 173.695 261.246 173.936C261.016 174.177 260.737 174.366 260.428 174.49C260.119 174.614 259.786 174.67 259.454 174.655C258.751 174.663 258.071 174.405 257.55 173.934C257.029 173.463 256.705 172.813 256.642 172.114C256.612 171.78 256.653 171.444 256.764 171.129C256.875 170.813 257.052 170.525 257.285 170.283C257.517 170.042 257.798 169.854 258.11 169.731C258.421 169.608 258.756 169.554 259.09 169.572C259.796 169.546 260.484 169.798 261.006 170.273C261.528 170.748 261.843 171.409 261.882 172.114Z"
      fill="#015AA4"
    />
    <path
      d="M266.625 188.7C266.482 188.712 266.339 188.669 266.226 188.58C266.113 188.492 266.037 188.364 266.013 188.222C265.765 184.095 259.205 180.713 251.536 180.713C246.43 180.713 241.974 182.165 239.621 184.534C239.166 184.991 238.811 185.538 238.58 186.141C238.35 186.743 238.248 187.387 238.283 188.031C238.28 188.165 238.23 188.293 238.14 188.392C238.051 188.491 237.928 188.555 237.796 188.571C237.663 188.587 237.529 188.555 237.418 188.481C237.307 188.406 237.227 188.294 237.193 188.165C237.145 187.359 237.273 186.553 237.567 185.8C237.86 185.048 238.313 184.369 238.895 183.808C241.324 181.133 246.315 179.451 251.67 179.451C260.065 179.451 266.969 183.273 267.352 188.031C267.237 188.337 266.989 188.7 266.625 188.7Z"
      fill="#015AA4"
    />
    <path
      d="M235.739 166.916C235.671 166.924 235.602 166.918 235.536 166.899C235.47 166.879 235.409 166.846 235.357 166.801C235.248 166.685 235.187 166.531 235.187 166.371C235.187 166.212 235.248 166.058 235.357 165.941L237.919 163.171C238.031 163.059 238.182 162.996 238.34 162.996C238.498 162.996 238.649 163.059 238.761 163.171C238.872 163.282 238.935 163.433 238.935 163.591C238.935 163.749 238.872 163.9 238.761 164.011L236.217 166.801C235.969 166.801 235.854 166.916 235.739 166.916Z"
      fill="#015AA4"
    />
    <path
      d="M265.401 166.916C265.336 166.923 265.27 166.916 265.208 166.896C265.145 166.877 265.087 166.844 265.038 166.801L261.997 164.011C261.942 163.956 261.898 163.891 261.867 163.819C261.837 163.747 261.822 163.669 261.822 163.591C261.822 163.513 261.837 163.435 261.867 163.363C261.898 163.291 261.942 163.226 261.997 163.171C262.052 163.112 262.119 163.066 262.193 163.034C262.267 163.002 262.347 162.986 262.427 162.986C262.508 162.986 262.588 163.002 262.662 163.034C262.736 163.066 262.802 163.112 262.858 163.171L265.898 165.941C266.007 166.058 266.068 166.212 266.068 166.371C266.068 166.531 266.007 166.685 265.898 166.801C265.65 166.801 265.535 166.916 265.401 166.916Z"
      fill="#015AA4"
    />
    <path
      d="M222.467 219.446H225.259L229.275 224.644L228.912 219.446H231.723L232.45 228.886H229.409L225.584 223.669L225.947 228.886H223.117L222.467 219.446Z"
      fill="#015AA4"
    />
    <path
      d="M233.425 224.166C233.319 223.518 233.361 222.854 233.55 222.225C233.739 221.596 234.069 221.018 234.515 220.535C234.975 220.079 235.526 219.723 236.132 219.493C236.739 219.262 237.387 219.162 238.034 219.198C239.413 219.148 240.765 219.581 241.859 220.421C242.344 220.868 242.735 221.408 243.007 222.008C243.28 222.609 243.429 223.258 243.446 223.918C243.587 224.863 243.461 225.829 243.083 226.708C242.738 227.375 242.24 227.951 241.63 228.389C240.834 228.789 239.957 228.998 239.067 229.001C238.149 229.052 237.232 228.889 236.389 228.523C235.586 228.088 234.901 227.464 234.395 226.705C233.888 225.946 233.575 225.074 233.482 224.166H233.425ZM236.466 224.166C236.581 225.141 236.695 225.848 237.193 226.211C237.382 226.405 237.608 226.559 237.857 226.665C238.107 226.77 238.375 226.824 238.646 226.824C238.917 226.824 239.185 226.77 239.435 226.665C239.685 226.559 239.911 226.405 240.1 226.211C240.313 225.895 240.456 225.537 240.519 225.161C240.581 224.785 240.562 224.4 240.463 224.032C240.348 223.192 240.233 222.465 239.736 222.121C239.551 221.922 239.326 221.764 239.075 221.659C238.825 221.554 238.555 221.503 238.283 221.51C238.027 221.496 237.771 221.545 237.538 221.651C237.305 221.758 237.101 221.919 236.944 222.121C236.709 222.401 236.547 222.733 236.47 223.089C236.393 223.446 236.405 223.815 236.504 224.166H236.466Z"
      fill="#015AA4"
    />
    <path
      d="M249.107 219.446H253.487C254.194 219.41 254.9 219.534 255.552 219.809C256.064 220.033 256.521 220.365 256.891 220.784C257.249 221.264 257.538 221.791 257.751 222.351C257.994 222.959 258.117 223.607 258.115 224.262C258.212 225.028 258.167 225.805 257.981 226.555C257.782 227.081 257.497 227.572 257.139 228.007C256.791 228.338 256.373 228.586 255.915 228.733C255.356 228.864 254.787 228.947 254.213 228.982H249.891L249.107 219.446ZM252.148 221.625L252.511 226.822H253.238C253.695 226.837 254.151 226.759 254.577 226.593C254.87 226.434 255.09 226.166 255.189 225.848C255.304 225.295 255.342 224.729 255.304 224.166C255.307 223.436 255.102 222.719 254.711 222.102C254.244 221.685 253.634 221.466 253.009 221.491H252.148V221.625Z"
      fill="#015AA4"
    />
    <path
      d="M265.191 227.319H261.901L261.538 228.886H258.497L261.404 219.446H264.579L268.825 228.886H265.765L265.191 227.319ZM264.445 225.255L263.106 221.854L262.265 225.255H264.445Z"
      fill="#015AA4"
    />
    <path d="M267.601 219.446H276.666L276.799 221.739H273.759L274.237 228.886H271.33L270.833 221.739H267.792L267.601 219.446Z" fill="#015AA4" />
    <path
      d="M283.416 227.319H280.127L279.764 228.886H276.666L279.572 219.446H282.747L286.993 228.886H283.952L283.416 227.319ZM282.556 225.255L281.217 221.854L280.49 225.255H282.556Z"
      fill="#015AA4"
    />
    <path
      d="M406.712 107.965C407.943 107.429 409.127 106.79 410.25 106.054C411.455 105.328 412.679 104.717 413.903 103.99C416.332 102.538 418.646 101.086 420.96 99.5189C425.528 96.4109 429.799 92.8861 433.716 88.99L435.188 87.5377L435.915 86.8115L436.278 86.4485L436.393 86.2001C436.278 86.5631 436.393 86.4485 436.393 86.0854C436.516 85.6509 436.562 85.1981 436.527 84.7478C436.519 82.1763 436.23 79.6133 435.666 77.1042C434.464 71.5202 432.971 66.003 431.191 60.5751L435.934 58.6642C438.922 63.9022 441.406 69.411 443.354 75.1169C444.471 78.1941 445.166 81.4081 445.42 84.6714C445.504 85.6787 445.465 86.6925 445.305 87.6906C445.128 89.1171 444.624 90.4837 443.833 91.6843L443.603 91.9327L443.469 92.1811L443.24 92.4104L442.876 92.9073L442.13 93.7481C441.65 94.4185 441.126 95.0568 440.562 95.659C436.381 100.243 431.735 104.38 426.697 108.003C424.244 109.839 421.69 111.536 419.047 113.086C417.708 113.927 416.37 114.653 415.031 115.379C413.692 116.105 412.354 116.832 410.785 117.558L406.712 107.965Z"
      fill="#FFD0A6"
    />
    <path
      d="M395.792 392.515C396.694 392.477 397.59 392.355 398.469 392.152C398.603 392.152 398.603 392.037 398.603 391.923C398.603 391.808 398.603 391.674 398.469 391.674C398.335 391.674 395.065 389.496 393.841 389.974C393.612 390.108 393.497 390.222 393.363 390.7C393.302 390.935 393.303 391.182 393.367 391.417C393.43 391.652 393.554 391.866 393.726 392.038C394.356 392.388 395.072 392.554 395.792 392.515ZM397.704 391.789C396.509 392.164 395.221 392.124 394.052 391.674C393.948 391.559 393.872 391.422 393.829 391.273C393.786 391.124 393.777 390.967 393.803 390.815C393.803 390.585 393.937 390.585 394.052 390.451C394.702 390.222 396.538 391.158 397.743 391.789H397.704Z"
      fill="#015AA4"
    />
    <path
      d="M398.469 392.152C398.718 392.038 398.718 392.037 398.718 391.923C398.718 391.808 398.718 388.885 397.628 387.91C397.356 387.68 397.009 387.557 396.652 387.566C396.459 387.596 396.276 387.677 396.125 387.801C395.973 387.926 395.858 388.089 395.792 388.273C395.428 389.381 397.379 391.674 398.469 392.095V392.152ZM396.652 388.044C396.744 388.044 396.835 388.064 396.918 388.104C397 388.144 397.073 388.201 397.131 388.273C397.728 389.22 398.065 390.307 398.106 391.426C397.09 390.656 396.406 389.529 396.193 388.273C396.332 388.171 396.488 388.094 396.652 388.044Z"
      fill="#015AA4"
    />
    <path
      d="M397.494 77.7731C396.289 83.8115 393.841 95.9265 397.991 100.035C397.991 100.035 396.289 106.092 385.101 106.092C372.689 106.092 379.134 100.035 379.134 100.035C385.828 98.468 385.694 93.4997 384.489 88.7798L397.494 77.7731Z"
      fill="#FFB573"
    />
    <path
      d="M376.935 102.404C375.023 102.653 376.706 97.6845 377.432 97.2068C379.249 95.9839 402.849 94.3023 402.6 97.2068C402.481 98.8313 401.89 100.386 400.898 101.678C399.942 102.29 393.841 99.863 376.935 102.404Z"
      fill="#263238"
    />
    <path
      d="M380.722 100.704C379.134 101.201 379.383 96.2322 379.861 95.6207C381.085 94.1685 400.171 89.3339 400.669 92.1238C401.035 93.6143 400.908 95.1834 400.305 96.5953C399.693 97.4361 394.09 95.9838 380.722 100.704Z"
      fill="#263238"
    />
    <path
      d="M373.665 66.9384C373.6 66.9477 373.533 66.9422 373.47 66.9224C373.407 66.9025 373.35 66.8688 373.301 66.8237C372.936 66.3361 372.454 65.9477 371.899 65.694C371.345 65.4403 370.735 65.3294 370.127 65.3714C370.062 65.3744 369.996 65.3634 369.936 65.3392C369.875 65.315 369.82 65.2782 369.775 65.2311C369.73 65.1841 369.695 65.128 369.673 65.0665C369.652 65.005 369.643 64.9396 369.649 64.8746C369.643 64.8104 369.651 64.7457 369.673 64.685C369.695 64.6244 369.73 64.5694 369.776 64.5238C369.821 64.4782 369.876 64.4432 369.937 64.4212C369.998 64.3993 370.063 64.391 370.127 64.3969C370.901 64.3647 371.672 64.522 372.372 64.855C373.072 65.188 373.68 65.6867 374.143 66.3078C374.216 66.4219 374.245 66.5588 374.223 66.6926C374.202 66.8264 374.133 66.9478 374.028 67.0339C373.913 66.8237 373.78 66.9384 373.665 66.9384Z"
      fill="#263238"
    />
    <path
      d="M371.351 72.7474C370.784 74.6613 369.967 76.4924 368.922 78.1935C369.363 78.4344 369.849 78.581 370.349 78.6238C370.85 78.6665 371.354 78.6046 371.829 78.4419L371.351 72.7474Z"
      fill="#FF5652"
    />
    <path
      d="M371.963 71.2951C372.078 72.1359 371.714 72.8621 371.102 72.8621C370.49 72.8621 370.127 72.2697 370.012 71.5436C369.897 70.8174 370.261 69.9575 370.873 69.9575C371.485 69.9575 371.829 70.569 371.963 71.2951Z"
      fill="#263238"
    />
    <path d="M370.987 69.9575L368.922 69.5945C369.037 69.5945 370.127 71.0467 370.987 69.9575Z" fill="#263238" />
    <path d="M410.269 391.923H400.057L400.898 368.438H411.13L410.269 391.923Z" fill="#FFB573" />
    <path
      d="M399.33 390.815H410.805C411.01 390.821 411.206 390.899 411.36 391.035C411.514 391.171 411.615 391.357 411.646 391.56L412.985 400.503C413.02 400.735 413.006 400.971 412.943 401.197C412.88 401.423 412.77 401.633 412.62 401.814C412.47 401.994 412.284 402.141 412.073 402.244C411.862 402.348 411.632 402.405 411.397 402.414C407.4 402.299 405.45 402.184 400.458 402.184C397.417 402.184 392.808 402.547 388.544 402.547C384.279 402.547 384.03 398.305 385.866 397.942C393.879 396.241 395.103 393.834 397.781 391.655C397.936 391.386 398.163 391.164 398.436 391.016C398.71 390.868 399.019 390.798 399.33 390.815Z"
      fill="#263238"
    />
    <g opacity="0.2">
      <path opacity="0.2" d="M411.13 368.438H400.975L400.496 380.534H410.709L411.13 368.438Z" fill="black" />
    </g>
    <path
      d="M369.763 114.08C363.522 111.703 357.429 108.953 351.519 105.844C345.36 102.849 339.506 99.2651 334.039 95.143C332.545 94.0013 331.162 92.7217 329.908 91.3212C329.552 90.9874 329.225 90.6229 328.933 90.232C328.569 89.7352 328.321 89.5059 327.843 88.8944C326.943 87.6048 326.396 86.1031 326.255 84.5376C326.14 83.0582 326.349 81.5715 326.867 80.1808C327.308 79.0662 327.879 78.0079 328.569 77.0278C329.763 75.4463 331.151 74.021 332.7 72.7856C335.484 70.6088 338.461 68.6899 341.593 67.053C343.064 66.1967 344.606 65.4679 346.202 64.8746C347.729 64.1103 349.315 63.4712 350.945 62.9637L353.163 67.9129C347.791 71.0164 342.809 74.75 338.323 79.0342C337.405 79.9553 336.59 80.9742 335.894 82.0726C335.282 83.0471 335.282 83.7541 335.397 83.6395L335.531 83.7541L336.009 84.251C336.193 84.4735 336.398 84.6782 336.621 84.8624C337.624 85.8041 338.677 86.6907 339.776 87.5186C342.205 89.2193 344.883 90.7862 347.56 92.3531C350.237 93.92 353.144 95.3914 355.956 96.7099C361.693 99.4998 367.622 102.041 373.454 104.468L369.763 114.08Z"
      fill="#FFD0A6"
    />
    <path
      d="M355.898 64.5115L357.6 60.8809L349.95 58.2247C349.95 58.2247 347.503 65.3714 350.429 68.6391C351.599 68.4235 352.702 67.9382 353.652 67.2216C354.601 66.5051 355.371 65.5772 355.898 64.5115Z"
      fill="#FFD0A6"
    />
    <path d="M357.6 53.0271L351.404 51.3264L349.951 58.2247L357.6 60.8809V53.0271Z" fill="#FFD0A6" />
    <path d="M436.546 61.2439L437.388 52.7787L429.489 54.594C429.489 54.594 429.374 62.5815 433.505 63.7854L436.546 61.2439Z" fill="#FFD0A6" />
    <path d="M433.754 46.8549L428.514 49.1098L429.604 54.5558L437.521 52.7405L433.754 46.8549Z" fill="#FFD0A6" />
    <path
      d="M399.062 65.8492C399.426 75.9004 399.789 80.1235 395.237 85.8179C388.429 94.3023 375.902 92.6016 372.498 82.7987C369.438 74.0851 369.324 59.0655 378.809 54.1354C380.874 53.0209 383.191 52.4538 385.538 52.4883C387.884 52.5228 390.183 53.1578 392.214 54.3327C394.246 55.5075 395.942 57.183 397.141 59.1992C398.339 61.2153 399.001 63.5048 399.062 65.8492Z"
      fill="#FFB573"
    />
    <path
      d="M394.702 85.8179C404.685 81.5757 411.13 72.4417 408.452 58.4731C405.775 45.0969 396.652 43.7019 392.885 46.4918C389.117 49.2817 379.746 45.1542 374.028 49.8741C364.294 58.11 373.531 66.8237 378.274 72.1359C381.2 77.945 384.967 89.9454 394.702 85.8179Z"
      fill="#263238"
    />
    <path
      d="M390.571 56.0463C392.076 58.343 394.43 59.9502 397.118 60.5161C399.807 61.082 402.61 60.5604 404.914 59.0655C406.02 58.2776 406.957 57.276 407.668 56.12C408.38 54.964 408.852 53.6771 409.058 52.3355C409.263 50.9938 409.196 49.6247 408.862 48.3091C408.528 46.9936 407.934 45.7583 407.114 44.6765C405.592 42.4846 403.261 40.9864 400.634 40.5116C398.007 40.0368 395.299 40.6242 393.105 42.1446C390.911 43.665 389.412 45.9938 388.937 48.6188C388.461 51.2438 389.049 53.9499 390.571 56.1418V56.0463Z"
      fill="#015AA4"
    />
    <path
      d="M393.325 47.3327C391.852 39.2305 399.636 32.9246 409.867 35.8674C420.099 38.8101 414.725 47.9633 412.66 55.2246C410.594 62.486 416.064 69.3843 418.397 63.8236C420.73 58.2629 416.81 56.5623 416.81 56.5623C416.81 56.5623 427.768 59.333 417.536 71.6774C407.305 84.0217 398.202 70.3589 400.63 62.3713C402.6 56.161 394.587 55.0718 393.325 47.3327Z"
      fill="#263238"
    />
    <path
      d="M382.902 50.4856C378.159 48.0588 370.261 45.995 365.69 53.6195C364.368 56.2385 363.9 59.2054 364.351 62.1038L378.217 63.0593L382.902 50.4856Z"
      fill="#263238"
    />
    <path
      d="M362.726 59.677C362.496 59.677 362.362 59.5624 362.496 59.3139C362.708 56.3372 363.852 53.5026 365.766 51.2118C372.957 43.8166 381.219 49.9888 383.648 52.0526C383.782 52.1672 383.782 52.301 383.648 52.5303C383.514 52.7596 383.418 52.6641 383.17 52.5303C380.856 50.6194 372.823 44.6765 366.13 51.6895C364.344 53.8693 363.246 56.5294 362.974 59.3331C363.07 59.5624 362.84 59.677 362.726 59.677Z"
      fill="#263238"
    />
    <path
      d="M380.11 71.6582C380.064 73.585 379.323 75.4305 378.025 76.8559C376.323 78.7667 374.372 77.8304 374.009 75.652C373.646 73.4736 374.009 70.3206 376.074 69.1168C376.496 68.8491 376.985 68.7066 377.485 68.7057C377.985 68.7048 378.474 68.8457 378.897 69.1119C379.32 69.3781 379.658 69.7587 379.873 70.2095C380.087 70.6602 380.17 71.1626 380.11 71.6582Z"
      fill="#FFB573"
    />
    <path
      d="M377.91 163.763C377.91 163.763 378.522 234.084 384.738 273.295C389.71 305.016 398.833 378.241 398.833 378.241H412.698C412.698 378.241 414.037 307.538 411.493 276.2C405.163 196.936 421.591 182.165 408.318 163.763H377.91Z"
      fill="#263238"
    />
    <path
      opacity="0.1"
      d="M377.91 163.763C377.91 163.763 378.522 234.084 384.738 273.295C389.71 305.016 398.833 378.241 398.833 378.241H412.698C412.698 378.241 414.037 307.538 411.493 276.2C405.163 196.936 421.591 182.165 408.318 163.763H377.91Z"
      fill="white"
    />
    <path
      opacity="0.3"
      d="M385.216 195.598C390.074 216.771 386.191 250.307 383.514 265.078C380.722 242.683 379.249 213.752 378.522 192.464C381.085 188.452 383.399 188.089 385.216 195.598Z"
      fill="black"
    />
    <path d="M396.901 378.489H414.534L415.509 372.298L396.767 371.706L396.901 378.489Z" fill="#015AA4" />
    <path
      d="M401.873 104.334C403.576 101.067 412.468 99.0222 417.326 99.0222L420.979 115.226C420.979 115.226 411.244 129.635 407.228 128.068C402.485 126.252 398.355 111.366 401.873 104.334Z"
      fill="#015AA4"
    />
    <path
      opacity="0.4"
      d="M401.873 104.334C403.576 101.067 412.468 99.0222 417.326 99.0222L420.979 115.226C420.979 115.226 411.244 129.635 407.228 128.068C402.485 126.252 398.355 111.366 401.873 104.334Z"
      fill="black"
    />
    <path
      d="M391.661 374.61V374.362C391.661 374.247 391.546 374.247 391.412 374.247C390.934 374.362 386.44 375.088 385.828 376.311C385.762 376.417 385.727 376.539 385.727 376.664C385.727 376.789 385.762 376.912 385.828 377.018C386.091 377.388 386.478 377.652 386.918 377.763C388.257 377.878 390.437 375.852 391.661 374.61ZM386.191 376.426C386.555 375.699 388.984 375.088 390.686 374.84C389.098 376.426 387.645 377.381 386.861 377.266C386.708 377.26 386.559 377.213 386.431 377.129C386.303 377.044 386.2 376.927 386.134 376.789C386.167 376.735 386.189 376.675 386.199 376.613C386.209 376.55 386.206 376.487 386.191 376.426Z"
      fill="#015AA4"
    />
    <path
      d="M391.661 374.61V374.362C391.546 374.247 389.844 372.183 388.142 372.069C387.651 372.05 387.172 372.221 386.803 372.546C386.306 373.024 386.306 373.406 386.44 373.636C386.918 374.725 390.265 375.088 391.546 374.725C391.546 374.61 391.546 374.61 391.661 374.61ZM386.803 373.024C386.803 372.909 386.918 372.909 387.033 372.795C387.298 372.551 387.648 372.421 388.008 372.432C389.152 372.764 390.171 373.429 390.934 374.343C389.486 374.504 388.026 374.16 386.803 373.368V373.024Z"
      fill="#015AA4"
    />
    <path
      d="M402.237 370.253L392.885 374.362L388.735 365.763L383.265 354.508L382.653 353.189L392.024 349.062L392.751 350.514L397.991 361.406L402.237 370.253Z"
      fill="#FFB573"
    />
    <path opacity="0.2" d="M397.991 361.406L388.735 365.763L383.265 354.508L392.828 350.514L397.991 361.406Z" fill="black" />
    <path
      d="M366.971 163.763C366.971 163.763 337.175 237.351 345.322 272.091C352.609 303.449 384.853 362.744 384.853 362.744L397.264 356.571C397.264 356.571 377.298 284.913 375.118 269.435C370.873 239.167 398.068 196.439 398.068 163.897L366.971 163.763Z"
      fill="#263238"
    />
    <path
      opacity="0.1"
      d="M366.971 163.763C366.971 163.763 337.175 237.351 345.322 272.091C352.609 303.449 384.853 362.744 384.853 362.744L397.264 356.571C397.264 356.571 377.298 284.913 375.118 269.435C370.873 239.167 398.068 196.439 398.068 163.897L366.971 163.763Z"
      fill="white"
    />
    <path
      d="M391.298 373.158L400.535 366.489C400.703 366.368 400.91 366.314 401.116 366.339C401.321 366.364 401.51 366.465 401.644 366.623L407.955 373.158C408.099 373.333 408.207 373.535 408.272 373.752C408.337 373.97 408.359 374.197 408.336 374.423C408.313 374.649 408.245 374.867 408.137 375.067C408.029 375.266 407.883 375.442 407.706 375.585C404.436 377.878 402.734 378.833 398.718 381.738C396.155 383.649 391.183 387.566 387.779 390.107C384.375 392.649 381.678 389.381 382.902 388.044C388.372 381.986 389.481 378.241 390.322 374.84C390.437 373.961 390.686 373.387 391.298 373.158Z"
      fill="#263238"
    />
    <path d="M383.992 365.285L400.057 358.024L397.991 351.488L380.779 359.361L383.992 365.285Z" fill="#015AA4" />
    <path
      d="M374.87 103.494C373.531 100.111 361.865 96.2322 356.013 95.0284L353.469 114.137C353.469 114.137 363.032 127.819 367.22 126.615C372.077 125.278 377.681 110.87 374.87 103.494Z"
      fill="#015AA4"
    />
    <path
      opacity="0.4"
      d="M374.87 103.494C373.531 100.111 361.865 96.2322 356.013 95.0284L353.469 114.137C353.469 114.137 363.032 127.819 367.22 126.615C372.077 125.278 377.681 110.87 374.87 103.494Z"
      fill="black"
    />
    <path
      d="M362.114 102.615C362.114 102.615 357.237 104.315 366.971 163.858H408.318C407.592 147.157 407.592 136.743 415.624 102.385C409.855 101.154 403.997 100.38 398.106 100.073C391.874 99.5949 385.615 99.5949 379.383 100.073C371.236 100.704 362.114 102.615 362.114 102.615Z"
      fill="#015AA4"
    />
    <path
      opacity="0.4"
      d="M362.114 102.615C362.114 102.615 357.237 104.315 366.971 163.858H408.318C407.592 147.157 407.592 136.743 415.624 102.385C409.855 101.154 403.997 100.38 398.106 100.073C391.874 99.5949 385.615 99.5949 379.383 100.073C371.236 100.704 362.114 102.615 362.114 102.615Z"
      fill="black"
    />
    <path
      d="M408.93 161.355L410.843 164.986C410.958 165.215 410.594 165.578 410.097 165.578H366.551C366.187 165.578 365.824 165.33 365.824 165.215L365.46 161.585C365.46 161.355 365.69 161.107 366.187 161.107H408.146C408.211 161.061 408.286 161.031 408.365 161.019C408.444 161.006 408.524 161.013 408.6 161.037C408.676 161.061 408.745 161.102 408.803 161.157C408.86 161.212 408.904 161.28 408.93 161.355Z"
      fill="#015AA4"
    />
    <path
      opacity="0.3"
      d="M408.93 161.355L410.843 164.986C410.958 165.215 410.594 165.578 410.097 165.578H366.551C366.187 165.578 365.824 165.33 365.824 165.215L365.46 161.585C365.46 161.355 365.69 161.107 366.187 161.107H408.146C408.211 161.061 408.286 161.031 408.365 161.019C408.444 161.006 408.524 161.013 408.6 161.037C408.676 161.061 408.745 161.102 408.803 161.157C408.86 161.212 408.904 161.28 408.93 161.355Z"
      fill="white"
    />
    <path
      d="M403.346 165.941H404.436C404.685 165.941 404.799 165.827 404.799 165.693L404.302 160.858C404.302 160.744 404.073 160.629 403.824 160.629H402.734C402.485 160.629 402.371 160.744 402.371 160.858L402.887 165.674C402.887 165.827 403.097 165.941 403.346 165.941Z"
      fill="#263238"
    />
    <path
      d="M376.113 165.941H377.203C377.452 165.941 377.566 165.827 377.566 165.693L377.088 160.858C377.088 160.744 376.84 160.629 376.591 160.629H375.501C375.252 160.629 375.137 160.744 375.137 160.858L375.635 165.693C375.688 165.77 375.759 165.833 375.843 165.877C375.926 165.92 376.019 165.942 376.113 165.941Z"
      fill="#263238"
    />
  </g>
  <defs>
    <clipPath id="clip0_1424_9263">
      <rect width="561" height="416" fill="white" />
    </clipPath>
  </defs>
</svg>
