<svg viewBox="0 0 689 516" fill="none" xmlns="http://www.w3.org/2000/svg">
  <path d="M634.034 450.203H54.9649V450.615H634.034V450.203Z" fill="#EBEBEB" />
  <path d="M619.998 472.238H574.381V472.647H619.998V472.238Z" fill="#EBEBEB" />
  <path d="M456.408 476.069H444.418V476.478H456.408V476.069Z" fill="#EBEBEB" />
  <path d="M573.001 459.648H546.542V460.057H573.001V459.648Z" fill="#EBEBEB" />
  <path d="M131.846 461.837H72.3088V462.247H131.846V461.837Z" fill="#EBEBEB" />
  <path d="M152.795 461.837H144.112V462.247H152.795V461.837Z" fill="#EBEBEB" />
  <path d="M310.321 467.721H181.185V468.131H310.321V467.721Z" fill="#EBEBEB" />
  <path
    d="M326.584 389.17H60.4561C56.1836 389.17 52.6004 385.612 52.6004 381.37V9.96572C52.6004 5.72344 56.1836 2.16541 60.4561 2.16541H326.584C330.854 2.16541 334.438 5.72344 334.438 9.96572V381.37C334.438 385.749 330.993 389.17 326.584 389.17ZM60.4561 2.57595C56.3214 2.57595 52.876 5.86029 52.876 10.1026V381.506C52.876 385.612 56.1836 389.034 60.4561 389.034H326.584C330.718 389.034 334.163 385.749 334.163 381.506V9.96572C334.163 5.86029 330.854 2.4391 326.584 2.4391H60.4561V2.57595Z"
    fill="#CACCCF"
  />
  <path
    d="M624.685 389.17H358.557C354.285 389.17 350.701 385.612 350.701 381.37V9.96572C350.701 5.72344 354.285 2.16541 358.557 2.16541H624.685C628.955 2.16541 632.539 5.72344 632.539 9.96572V381.37C632.539 385.749 629.094 389.17 624.685 389.17ZM358.557 2.57595C354.421 2.57595 350.976 5.86029 350.976 10.1026V381.506C350.976 385.612 354.285 389.034 358.557 389.034H624.685C628.819 389.034 632.264 385.749 632.264 381.506V9.96572C632.264 5.86029 628.955 2.4391 624.685 2.4391H358.557V2.57595Z"
    fill="#CACCCF"
  />
  <path d="M399.163 165.13H589.078V41.6938H399.163V165.13Z" fill="#E6E6E6" />
  <path d="M393.419 165.13H586.365V41.6938H393.419V165.13Z" fill="#F0F0F0" />
  <path d="M399.163 189.399H589.078V165.177H399.163V189.399Z" fill="#E6E6E6" />
  <path d="M383.762 189.399H576.706V165.177H383.762V189.399Z" fill="#F0F0F0" />
  <path d="M578.227 157.208V49.7825H401.544V157.208H578.227Z" fill="#FAFAFA" />
  <path d="M538.41 157.077L515.81 49.7888H480.664L503.13 157.077H538.41Z" fill="white" />
  <path
    d="M574.52 149.14C574.795 149.14 575.07 148.866 575.07 148.593V54.9888C575.07 54.715 574.795 54.4414 574.52 54.4414C574.245 54.4414 573.967 54.715 573.967 54.9888V148.456C573.967 148.866 574.245 149.14 574.52 149.14Z"
    fill="#F0F0F0"
  />
  <path d="M495.688 157.077L473.085 49.7888H459.303L481.906 157.077H495.688Z" fill="white" />
  <path d="M402.575 157.14V49.7153H401.611V157.14H402.575Z" fill="#E6E6E6" />
  <path opacity="0.6" d="M391.497 61.8311H581.41L582.099 52.9362H392.186L391.497 61.8311Z" fill="#EBEBEB" />
  <path opacity="0.6" d="M391.497 76.6106H581.41L582.099 67.7157H392.186L391.497 76.6106Z" fill="#EBEBEB" />
  <path opacity="0.6" d="M391.497 91.3901H581.41L582.099 82.495H392.186L391.497 91.3901Z" fill="#EBEBEB" />
  <path opacity="0.6" d="M391.497 106.17H581.41L582.099 97.2744H392.186L391.497 106.17Z" fill="#EBEBEB" />
  <path opacity="0.6" d="M391.497 120.95H581.41L582.099 112.055H392.186L391.497 120.95Z" fill="#EBEBEB" />
  <path opacity="0.6" d="M391.497 135.729H581.41L582.099 126.834H392.186L391.497 135.729Z" fill="#EBEBEB" />
  <path d="M561.838 360.432H522.008V368.231H561.838V360.432Z" fill="#E6E6E6" />
  <path d="M446.966 450.24H454.27V270.833H446.966V450.24Z" fill="#E6E6E6" />
  <path d="M421.449 368.305H522.058V360.504H421.449V368.305Z" fill="#F5F5F5" />
  <path d="M561.838 403.128H522.008V410.929H561.838V403.128Z" fill="#E6E6E6" />
  <path d="M421.449 410.909H522.058V403.109H421.449V410.909Z" fill="#F5F5F5" />
  <path d="M561.838 275.175H522.008V282.976H561.838V275.175Z" fill="#E6E6E6" />
  <path d="M421.449 282.957H522.058V275.156H421.449V282.957Z" fill="#F5F5F5" />
  <path d="M561.838 317.871H522.008V325.672H561.838V317.871Z" fill="#E6E6E6" />
  <path d="M421.449 325.563H522.058V317.763H421.449V325.563Z" fill="#F5F5F5" />
  <path d="M547.471 450.24H554.775V270.833H547.471V450.24Z" fill="#E6E6E6" />
  <path d="M514.657 450.24H521.961V270.833H514.657V450.24Z" fill="#F5F5F5" />
  <path d="M421.547 450.24H428.851V270.833H421.547V450.24Z" fill="#F5F5F5" />
  <path d="M89.9854 450.206H165.234V305.283H89.9854V450.206Z" fill="#E6E6E6" />
  <path d="M110.072 450.203H90.0883V430.225H131.158L110.072 450.203Z" fill="#FAFAFA" />
  <path d="M295.085 450.206H370.333V305.283H295.085V450.206Z" fill="#E6E6E6" />
  <path d="M90.0553 443.32H312.633V305.24H90.0553V443.32Z" fill="#FAFAFA" />
  <path d="M292.543 450.203H312.663V430.225H271.455L292.543 450.203Z" fill="#FAFAFA" />
  <path d="M105.629 391.384H297.059V356.899H105.629V391.384Z" fill="#F0F0F0" />
  <path d="M105.629 433.219H297.059V398.734H105.629V433.219Z" fill="#F0F0F0" />
  <path
    d="M142.045 360.432H260.706C264.151 360.432 267.046 357.694 267.046 354.136V353.863H135.705V354.273C135.705 357.694 138.599 360.432 142.045 360.432Z"
    fill="#FAFAFA"
  />
  <path d="M105.629 349.41H297.059V314.925H105.629V349.41Z" fill="#F0F0F0" />
  <path
    d="M142.045 318.556H260.706C264.151 318.556 267.046 315.82 267.046 312.262V311.85H135.705V312.262C135.705 315.82 138.599 318.556 142.045 318.556Z"
    fill="#FAFAFA"
  />
  <path
    d="M142.045 402.445H260.706C264.151 402.445 267.046 399.707 267.046 396.149V395.74H135.705V396.149C135.705 399.57 138.599 402.445 142.045 402.445Z"
    fill="#FAFAFA"
  />
  <path d="M101.964 165.13H291.878V41.6938H101.964V165.13Z" fill="#E6E6E6" />
  <path d="M96.2191 165.13H289.165V41.6938H96.2191V165.13Z" fill="#F0F0F0" />
  <path d="M101.964 189.399H291.878V165.177H101.964V189.399Z" fill="#E6E6E6" />
  <path d="M86.5622 189.399H279.509V165.177H86.5622V189.399Z" fill="#F0F0F0" />
  <path d="M281.058 157.101V49.676H104.376V157.101H281.058Z" fill="#FAFAFA" />
  <path d="M241.274 157.077L218.673 49.7883H183.391L205.993 157.077H241.274Z" fill="white" />
  <path
    d="M277.383 149.14C277.658 149.14 277.933 148.866 277.933 148.593V54.9888C277.933 54.715 277.658 54.4414 277.383 54.4414C277.108 54.4414 276.833 54.715 276.833 54.9888V148.456C276.833 148.866 276.969 149.14 277.383 149.14Z"
    fill="#F0F0F0"
  />
  <path d="M198.413 157.077L175.811 49.7883H162.167L184.769 157.077H198.413Z" fill="white" />
  <path d="M105.408 157.171V49.7458H104.443V157.171H105.408Z" fill="#E6E6E6" />
  <path opacity="0.6" d="M94.3607 61.8311H284.275L284.964 52.9362H95.0499L94.3607 61.8311Z" fill="#EBEBEB" />
  <path opacity="0.6" d="M94.3607 67.0315H284.275L284.964 57.9995H95.0499L94.3607 67.0315Z" fill="#EBEBEB" />
  <path opacity="0.6" d="M94.3607 72.0943H284.275L284.964 63.0624H95.0499L94.3607 72.0943Z" fill="#EBEBEB" />
  <path opacity="0.6" d="M94.3607 77.1583H284.275L284.964 68.1263H95.0499L94.3607 77.1583Z" fill="#EBEBEB" />
  <path opacity="0.6" d="M94.3607 82.2212H284.275L284.964 73.1892H95.0499L94.3607 82.2212Z" fill="#EBEBEB" />
  <path opacity="0.6" d="M94.3607 87.2846H284.275L284.964 78.2527H95.0499L94.3607 87.2846Z" fill="#EBEBEB" />
  <path d="M132.248 300.965H138.863V228.3H132.248V300.965Z" fill="#F5F5F5" />
  <path d="M133.225 300.865H135.016V228.198H133.225V300.865Z" fill="#FAFAFA" />
  <path d="M135.842 300.865H136.531V228.198H135.842V300.865Z" fill="#FAFAFA" />
  <path
    d="M111.313 305.42H159.825C159.825 301.999 157.068 299.399 153.761 299.399H117.377C114.069 299.26 111.313 301.999 111.313 305.42Z"
    fill="#F0F0F0"
  />
  <path
    d="M123.716 273.398C124.819 273.398 125.646 272.576 125.646 271.481V223.859C125.646 222.765 124.819 221.943 123.716 221.943C122.614 221.943 121.787 222.765 121.787 223.859V271.481C121.925 272.576 122.752 273.398 123.716 273.398Z"
    fill="#F0F0F0"
  />
  <path d="M106.213 245.479H164.924L158.171 204.7H112.967L106.213 245.479Z" fill="#E0E0E0" />
  <path
    d="M344.5 512.058C492.087 512.058 611.73 505.136 611.73 496.596C611.73 488.056 492.087 481.131 344.5 481.131C196.913 481.131 77.2705 488.056 77.2705 496.596C77.2705 505.136 196.913 512.058 344.5 512.058Z"
    fill="#F5F5F5"
  />
  <path
    d="M465.307 113.488H186.813C179.633 113.488 173.813 119.312 173.813 126.496V364.264C173.813 371.448 179.633 377.272 186.813 377.272H465.307C472.487 377.272 478.307 371.448 478.307 364.264V126.496C478.307 119.312 472.487 113.488 465.307 113.488Z"
    fill="white"
  />
  <path
    d="M288.154 417.184C286.997 414.175 244.487 343.201 223.377 308.091C220.87 306.933 214.585 304.676 209.495 304.908C203.133 305.197 156.286 388.535 145.875 410.818C137.546 428.642 144.14 433.293 148.478 433.388C184.144 432.714 259.235 431.478 274.274 431.942C293.07 432.521 289.599 420.945 288.154 417.184Z"
    fill="white"
  />
  <path
    d="M206.952 152.795C206.952 150.503 206.952 148.286 206.879 145.994C206.879 142.15 207.985 139.046 212.484 139.046C213.148 139.046 213.811 139.046 214.475 139.046C219.49 139.046 224.432 139.046 229.448 139.046C249.507 139.046 269.494 139.046 289.556 139.046C314.557 139.12 339.558 139.194 364.561 139.194C384.252 139.194 404.018 139.194 423.709 139.194C428.504 139.194 433.37 139.194 438.165 139.194C439.42 139.194 440.746 139.12 442 139.268C446.719 139.785 446.645 143.925 446.645 147.547C446.645 150.947 446.645 154.347 446.645 157.821C446.645 161.073 446.645 164.252 446.645 167.504C446.645 170.017 450.556 170.017 450.556 167.504C450.556 160.63 450.556 153.829 450.556 146.955C450.556 144.442 450.556 141.929 449.375 139.711C447.458 136.015 443.697 135.35 439.862 135.35C436.911 135.35 433.962 135.35 431.011 135.35C412.425 135.35 393.766 135.35 375.18 135.35C349.145 135.35 323.037 135.35 297.004 135.424C275.32 135.424 253.636 135.424 232.028 135.424C226.423 135.424 220.818 135.424 215.139 135.424C214.254 135.424 213.369 135.424 212.484 135.424C205.92 135.424 203.117 139.637 203.117 145.846C203.117 148.212 203.117 150.577 203.117 152.942C203.191 155.234 207.026 155.234 206.952 152.795Z"
    fill="#2695D8"
  />
  <path
    d="M446.719 164.326C446.719 167.282 447.458 171.274 444.728 173.27C443.623 174.083 442.295 174.009 441.04 174.009C440.009 174.009 438.902 174.009 437.87 174.009C432.412 174.009 426.955 174.009 421.497 174.009C401.436 174.009 381.377 174.009 361.315 173.935C337.051 173.935 312.713 173.861 288.448 173.861C269.126 173.861 249.728 173.861 230.406 173.861C225.537 173.861 220.744 173.861 215.876 173.861C215.213 173.861 214.475 173.861 213.811 173.861C211.23 173.861 208.28 173.639 207.321 170.757C206.952 169.796 207.026 168.687 207.026 167.726C207.026 164.769 207.026 161.739 207.026 158.782C207.026 156.121 207.026 153.386 207.026 150.725C207.026 148.212 203.117 148.212 203.117 150.725C203.117 156.565 202.97 162.478 203.117 168.391C203.339 175.044 207.542 177.779 213.885 177.853C216.983 177.853 220.079 177.853 223.178 177.853C241.395 177.853 259.612 177.853 277.901 177.853C303.199 177.853 328.568 177.853 353.866 177.779C375.622 177.779 397.306 177.779 419.064 177.779C425.111 177.779 431.084 177.779 437.132 177.779C442.295 177.779 448.563 178.148 450.259 171.865C450.924 169.426 450.63 166.839 450.63 164.4C450.554 161.887 446.719 161.887 446.719 164.326Z"
    fill="#2695D8"
  />
  <path
    d="M206.952 240.976C206.952 238.685 206.952 236.469 206.879 234.177C206.879 230.333 207.985 227.229 212.484 227.229C213.148 227.229 213.811 227.229 214.475 227.229C219.49 227.229 224.432 227.229 229.448 227.229C249.507 227.229 269.494 227.229 289.556 227.229C314.557 227.302 339.558 227.376 364.561 227.376C384.252 227.376 404.018 227.376 423.709 227.376C428.504 227.376 433.37 227.376 438.165 227.376C439.42 227.376 440.746 227.302 442 227.45C446.719 227.968 446.645 232.107 446.645 235.73C446.645 239.129 446.645 242.529 446.645 246.004C446.645 249.256 446.645 252.435 446.645 255.687C446.645 258.2 450.556 258.2 450.556 255.687C450.556 248.812 450.556 242.013 450.556 235.138C450.556 232.625 450.556 230.112 449.375 227.894C447.458 224.198 443.697 223.532 439.862 223.532C436.911 223.532 433.962 223.532 431.011 223.532C412.425 223.532 393.766 223.532 375.18 223.532C349.145 223.532 323.037 223.532 297.004 223.606C275.32 223.606 253.636 223.606 232.028 223.606C226.423 223.606 220.818 223.606 215.139 223.606C214.254 223.606 213.369 223.606 212.484 223.606C205.92 223.606 203.117 227.821 203.117 234.03C203.117 236.395 203.117 238.761 203.117 241.126C203.191 243.415 207.026 243.415 206.952 240.976Z"
    fill="#2695D8"
  />
  <path
    d="M446.719 252.435C446.719 255.392 447.458 259.383 444.728 261.378C443.623 262.191 442.295 262.117 441.04 262.117C440.009 262.117 438.902 262.117 437.87 262.117C432.412 262.117 426.955 262.117 421.497 262.117C401.436 262.117 381.377 262.117 361.315 262.043C337.051 261.97 312.713 261.896 288.448 261.896C269.126 261.896 249.728 261.896 230.406 261.896C225.537 261.896 220.744 261.896 215.876 261.896C215.213 261.896 214.475 261.896 213.811 261.896C211.23 261.896 208.28 261.675 207.321 258.791C206.952 257.831 207.026 256.721 207.026 255.76C207.026 252.803 207.026 249.774 207.026 246.817C207.026 244.157 207.026 241.421 207.026 238.761C207.026 236.248 203.117 236.248 203.117 238.761C203.117 244.599 202.97 250.514 203.117 256.426C203.339 263.078 207.542 265.814 213.885 265.887C216.983 265.887 220.079 265.887 223.178 265.887C241.395 265.887 259.612 265.887 277.901 265.887C303.199 265.887 328.568 265.887 353.866 265.814C375.622 265.814 397.306 265.814 419.064 265.814C425.111 265.814 431.084 265.814 437.132 265.814C442.295 265.814 448.563 266.182 450.259 259.899C450.924 257.46 450.63 254.874 450.63 252.435C450.554 249.996 446.719 249.996 446.719 252.435Z"
    fill="#2695D8"
  />
  <path
    d="M244.346 314.671C270.233 314.671 296.118 314.671 322.006 314.747C357.922 314.821 393.841 314.821 429.758 314.821C433.075 314.821 436.395 314.821 439.714 314.821C442.368 314.821 444.804 314.821 446.13 317.555C447.016 319.402 446.721 322.064 446.721 324.059C446.721 330.416 446.721 336.699 446.721 343.055C446.721 345.568 450.63 345.568 450.63 343.055C450.63 337.291 450.63 331.526 450.63 325.834C450.63 321.472 451.293 315.855 447.458 312.75C444.359 310.311 439.493 310.903 435.658 310.903C422.236 310.903 408.811 310.903 395.462 310.903C355.195 310.903 314.925 310.977 274.657 310.977C264.552 310.977 254.449 310.977 244.346 310.977C241.984 310.977 241.984 314.671 244.346 314.671Z"
    fill="#2695D8"
  />
  <path
    d="M446.721 340.025C446.795 344.534 447.089 349.636 441.19 349.709C440.672 349.709 440.082 349.709 439.567 349.709C436.1 349.709 432.56 349.709 429.093 349.709C415.376 349.709 401.659 349.709 387.866 349.709C353.94 349.709 320.088 349.56 286.162 349.56C278.124 349.56 270.084 349.56 262.045 349.56C259.538 349.56 259.538 353.477 262.045 353.477C284.982 353.477 307.846 353.477 330.783 353.477C363.601 353.404 396.422 353.404 429.24 353.404C432.928 353.404 436.616 353.404 440.377 353.404C442 353.404 443.623 353.477 445.246 352.888C450.924 350.67 450.63 345.2 450.556 340.025C450.556 337.585 446.721 337.512 446.721 340.025Z"
    fill="#2695D8"
  />
  <path
    d="M176.568 144.294C176.494 138.233 176.272 132.098 176.42 126.037C176.568 120.863 178.633 116.058 184.311 115.023C185.713 114.801 187.262 114.949 188.663 114.949C193.678 114.949 198.693 114.949 203.634 114.949C229.522 114.949 255.335 114.949 281.223 115.023C314.63 115.097 348.04 115.245 381.45 115.245C405.273 115.245 429.02 115.245 452.842 115.245C458.079 115.245 464.347 114.58 469.437 115.688C478.14 117.61 477.107 127.367 477.107 134.315C477.107 143.998 477.107 153.608 477.107 163.291C477.107 167.208 477.107 171.126 477.107 174.97C477.107 179.996 484.924 179.996 484.924 174.97C484.924 158.93 485.663 142.742 484.924 126.776C484.629 120.789 482.785 114.284 477.622 110.736C473.198 107.705 467.74 107.41 462.577 107.41C461.325 107.41 460.07 107.41 458.889 107.41C437.281 107.41 415.744 107.41 394.136 107.336C360.063 107.41 325.988 107.484 291.915 107.557C263.815 107.631 235.642 107.557 207.543 107.557C201.422 107.557 195.374 107.557 189.253 107.557C183.721 107.557 178.78 108.297 174.355 112.066C167.643 117.758 168.897 128.032 168.897 135.942C168.897 138.677 168.897 141.485 168.897 144.22C168.971 149.173 176.568 149.173 176.568 144.294Z"
    fill="#2695D8"
  />
  <path
    d="M477.18 176.226C477.254 183.544 479.171 194.558 469.658 196.627C467.74 197.071 465.601 196.775 463.61 196.775C457.489 196.775 451.367 196.775 445.246 196.775C419.137 196.775 392.955 196.775 366.847 196.701C334.839 196.627 302.904 196.48 270.896 196.48C247.886 196.48 224.8 196.48 201.791 196.48C197.882 196.48 194.047 196.48 190.138 196.48C184.09 196.48 178.19 195.149 176.863 188.349C176.494 186.279 176.641 184.209 176.641 182.14C176.641 173.713 176.641 165.213 176.641 156.786C176.641 153.682 176.641 150.577 176.641 147.547C176.641 142.52 168.824 142.52 168.824 147.547C168.824 155.603 168.824 163.66 168.824 171.717C168.824 177.926 168.012 184.875 169.414 191.01C171.847 201.654 181.656 204.388 191.318 204.388C192.719 204.388 194.194 204.388 195.596 204.388C216.541 204.388 237.412 204.388 258.358 204.462C291.178 204.462 323.997 204.388 356.817 204.315C384.917 204.241 413.09 204.315 441.19 204.315C448.344 204.315 455.425 204.315 462.577 204.315C463.684 204.315 464.791 204.315 465.822 204.315C471.28 204.315 476.665 202.984 480.573 198.771C483.819 195.297 484.776 190.049 484.85 185.392C484.924 182.361 484.85 179.331 484.777 176.3C484.777 171.348 477.106 171.348 477.18 176.226Z"
    fill="#2695D8"
  />
  <path
    d="M176.567 247.038C176.567 240.976 176.493 234.843 176.493 228.781C176.493 225.011 176.419 221.241 176.419 217.399C176.419 214.515 176.345 211.632 177.452 208.897C180.18 202.171 190.358 203.649 196.48 203.649C220.818 203.649 245.23 203.649 269.568 203.723C304.157 203.797 338.747 203.945 373.262 203.945C399.223 203.945 425.111 203.945 451.072 203.945C455.938 203.945 460.88 203.797 465.749 203.945C468.845 204.093 472.312 204.536 474.45 206.975C476.368 209.119 476.959 212.667 477.106 215.476C477.18 217.546 477.106 219.688 477.106 221.759C477.106 231.515 477.106 241.347 477.106 251.103C477.106 255.242 477.106 259.457 477.106 263.596C477.106 268.621 484.924 268.621 484.924 263.596C484.924 253.766 484.924 243.934 484.924 234.03C484.924 227.302 485.513 220.354 484.703 213.702C483.89 207.049 481.383 200.767 474.894 197.884C470.983 196.184 466.633 196.036 462.43 196.036C460.88 196.036 459.257 196.036 457.708 196.036C434.183 196.036 410.655 196.036 387.203 195.962C351.654 195.962 316.106 196.036 280.557 196.11C253.563 196.184 226.644 196.11 199.651 196.11C194.709 196.11 189.768 195.888 184.827 196.184C178.484 196.553 172.363 200.767 170.298 206.828C169.191 210.006 168.97 213.332 168.97 216.659C168.97 224.79 168.97 232.92 168.97 241.126C168.97 243.047 168.97 245.044 168.97 246.965C168.97 251.99 176.567 251.99 176.567 247.038Z"
    fill="#2695D8"
  />
  <path
    d="M477.18 264.927C477.254 271.947 479.024 281.632 471.059 284.884C468.847 285.771 466.338 285.55 463.979 285.55C458.447 285.55 452.916 285.55 447.458 285.55C423.193 285.55 398.929 285.55 374.664 285.476C343.911 285.4 313.083 285.253 282.327 285.253C257.989 285.253 233.651 285.253 209.313 285.253C203.782 285.253 198.25 285.253 192.645 285.253C189.327 285.253 185.934 285.476 182.763 284.366C174.576 281.482 176.568 269.953 176.568 263.225C176.568 258.939 176.568 254.653 176.568 250.29C176.568 245.265 168.75 245.265 168.75 250.29C168.75 258.421 168.455 266.553 168.75 274.683C168.897 279.561 170.298 284.145 173.691 287.692C177.747 292.054 183.795 293.014 189.474 293.088C193.383 293.162 197.292 293.088 201.201 293.088C223.916 293.088 246.705 293.088 269.421 293.162C301.281 293.162 333.069 293.088 364.929 293.014C391.185 292.941 417.441 293.014 443.623 293.014C450.04 293.014 456.53 293.014 462.947 293.014C464.273 293.014 465.601 293.014 467.003 293.014C472.238 292.941 477.696 290.944 481.089 286.731C483.892 283.184 484.703 278.38 484.776 273.944C484.85 270.987 484.776 268.03 484.703 265.074C484.776 260.047 477.106 260.047 477.18 264.927Z"
    fill="#2695D8"
  />
  <path
    d="M176.567 361.469C176.493 355.038 176.493 314.821 176.419 308.388C176.419 305.875 176.198 303.289 176.641 300.776C177.673 294.419 182.467 292.422 188.293 292.422C192.276 292.422 196.258 292.422 200.315 292.422C225.687 292.422 251.056 292.422 276.428 292.496C310.353 292.57 344.205 292.72 378.131 292.72C402.838 292.72 427.618 292.72 452.326 292.72C457.414 292.72 462.871 292.275 467.887 292.867C477.77 294.122 477.107 303.807 477.107 311.419C477.107 321.028 477.107 330.639 477.107 340.248C477.107 344.313 477.107 348.304 477.107 352.37C477.107 357.395 484.924 357.395 484.924 352.37C484.924 342.834 484.924 333.225 484.924 323.69C484.924 317.186 485.219 310.606 484.924 304.176C484.556 297.819 482.491 291.018 476.738 287.618C472.459 285.032 467.298 284.81 462.503 284.81C461.101 284.81 459.699 284.81 458.3 284.81C436.026 284.81 413.753 284.81 391.406 284.737C356.521 284.737 321.711 284.81 286.825 284.884C259.168 284.958 231.513 284.884 203.781 284.884C198.692 284.884 193.603 284.884 188.441 284.884C178.706 284.884 170.74 289.467 169.118 299.666C168.085 306.394 168.749 313.563 168.749 320.438C168.749 322.804 168.749 367.8 168.749 370.091C168.97 375.193 176.567 366.421 176.567 361.469Z"
    fill="#2695D8"
  />
  <path
    d="M477.18 353.701C477.254 357.027 477.475 360.426 477.327 363.754C477.18 367.08 476.368 370.406 473.493 372.327C470.762 374.176 468.403 374.25 465.305 374.25C463.387 374.25 461.396 374.25 459.479 374.25C446.351 374.25 433.223 374.25 420.095 374.25C383.073 374.25 346.049 374.102 309.025 374.028C299.88 374.028 273.561 373.953 264.416 373.953C259.328 373.953 261.46 381.862 266.548 381.862C292.288 381.862 333.069 381.788 358.809 381.714C392.29 381.641 425.7 381.714 459.184 381.714C462.429 381.714 465.675 381.862 468.919 381.714C477.327 381.198 483.301 374.989 484.482 366.932C485.145 362.57 484.85 358.134 484.776 353.774C484.776 348.749 477.106 348.749 477.18 353.701Z"
    fill="#2695D8"
  />
  <path
    d="M239.183 156.934C239.33 155.899 239.404 155.382 239.183 154.347C239.109 153.829 238.962 153.46 238.665 152.942C238.223 152.129 237.633 151.538 236.747 151.169C234.682 150.282 232.176 151.76 231.216 153.682C230.7 154.79 230.553 155.825 230.774 157.008C231.069 158.338 232.102 159.299 233.283 159.817C234.388 160.26 235.495 160.26 236.6 159.817C237.854 159.299 238.962 158.264 239.183 156.934Z"
    fill="#2695D8"
  />
  <path
    d="M275.689 156.934C275.836 155.899 275.91 155.382 275.689 154.347C275.615 153.829 275.468 153.46 275.173 152.942C274.731 152.129 274.14 151.538 273.256 151.169C271.191 150.282 268.684 151.76 267.724 153.682C267.209 154.79 267.061 155.825 267.282 157.008C267.577 158.338 268.608 159.299 269.789 159.817C270.896 160.26 272.001 160.26 273.108 159.817C274.289 159.299 275.468 158.264 275.689 156.934Z"
    fill="#2695D8"
  />
  <path
    d="M310.943 156.934C311.09 155.899 311.164 155.382 310.943 154.347C310.869 153.829 310.722 153.46 310.427 152.942C309.985 152.129 309.394 151.538 308.51 151.169C306.445 150.282 303.936 151.76 302.978 153.682C302.46 154.79 302.313 155.825 302.536 157.008C302.831 158.338 303.862 159.299 305.043 159.817C306.148 160.26 307.255 160.26 308.362 159.817C309.541 159.299 310.722 158.264 310.943 156.934Z"
    fill="#2695D8"
  />
  <path
    d="M239.183 245.93C239.33 244.894 239.404 244.378 239.183 243.342C239.109 242.826 238.962 242.455 238.665 241.939C238.223 241.126 237.633 240.534 236.747 240.163C234.682 239.277 232.176 240.755 231.216 242.676C230.7 243.786 230.553 244.82 230.774 246.004C231.069 247.333 232.102 248.296 233.283 248.812C234.388 249.256 235.495 249.256 236.6 248.812C237.854 248.22 238.962 247.259 239.183 245.93Z"
    fill="#2695D8"
  />
  <path
    d="M275.689 245.93C275.836 244.894 275.91 244.378 275.689 243.342C275.615 242.826 275.468 242.455 275.173 241.939C274.731 241.126 274.14 240.534 273.256 240.163C271.191 239.277 268.684 240.755 267.724 242.676C267.209 243.786 267.061 244.82 267.282 246.004C267.577 247.333 268.608 248.296 269.789 248.812C270.896 249.256 272.001 249.256 273.108 248.812C274.289 248.22 275.468 247.259 275.689 245.93Z"
    fill="#2695D8"
  />
  <path
    d="M310.943 245.93C311.09 244.894 311.164 244.378 310.943 243.342C310.869 242.826 310.722 242.455 310.427 241.939C309.985 241.126 309.394 240.534 308.51 240.163C306.445 239.277 303.936 240.755 302.978 242.676C302.46 243.786 302.313 244.82 302.536 246.004C302.831 247.333 303.862 248.296 305.043 248.812C306.148 249.256 307.255 249.256 308.362 248.812C309.541 248.22 310.722 247.259 310.943 245.93Z"
    fill="#2695D8"
  />
  <path
    d="M275.689 333.67C275.836 332.634 275.91 332.118 275.689 331.081C275.615 330.565 275.468 330.195 275.173 329.679C274.731 328.865 274.14 328.274 273.256 327.903C271.191 327.016 268.684 328.495 267.724 330.416C267.209 331.526 267.061 332.56 267.282 333.744C267.577 335.073 268.608 336.035 269.789 336.551C270.896 336.996 272.001 336.996 273.108 336.551C274.289 336.035 275.468 334.999 275.689 333.67Z"
    fill="#2695D8"
  />
  <path
    d="M310.943 333.67C311.09 332.634 311.164 332.118 310.943 331.081C310.869 330.565 310.722 330.195 310.427 329.679C309.985 328.865 309.394 328.274 308.51 327.903C306.445 327.016 303.936 328.495 302.978 330.416C302.46 331.526 302.313 332.56 302.536 333.744C302.831 335.073 303.862 336.035 305.043 336.551C306.148 336.996 307.255 336.996 308.362 336.551C309.541 336.035 310.722 334.999 310.943 333.67Z"
    fill="#2695D8"
  />
  <path
    d="M357.628 156.195C362.494 157.821 367.952 157.747 373.041 157.895C379.015 158.116 384.915 158.19 390.89 158.19C397.748 158.19 404.608 158.19 411.394 158.116C415.155 158.043 415.229 152.129 411.394 152.203C404.534 152.277 397.674 152.351 390.89 152.425C385.138 152.499 379.31 152.647 373.557 152.721C368.322 152.868 362.717 152.647 357.628 154.125C356.594 154.495 356.668 155.899 357.628 156.195Z"
    fill="#2695D8"
  />
  <path
    d="M357.628 245.191C362.494 246.817 367.952 246.743 373.041 246.891C379.015 247.112 384.915 247.186 390.89 247.186C397.748 247.186 404.608 247.186 411.394 247.112C415.155 247.038 415.229 241.124 411.394 241.2C404.534 241.273 397.674 241.347 390.89 241.421C385.138 241.495 379.31 241.642 373.557 241.716C368.322 241.863 362.717 241.642 357.628 243.121C356.594 243.489 356.668 244.894 357.628 245.191Z"
    fill="#2695D8"
  />
  <path
    d="M357.628 331.747C362.494 333.373 367.952 333.299 373.041 333.447C379.015 333.668 384.915 333.741 390.89 333.741C397.748 333.741 404.608 333.741 411.394 333.668C415.155 333.594 415.229 327.682 411.394 327.755C404.534 327.829 397.674 327.903 390.89 327.977C385.138 328.05 379.31 328.198 373.557 328.274C368.322 328.421 362.717 328.198 357.628 329.676C356.594 330.047 356.668 331.376 357.628 331.747Z"
    fill="#2695D8"
  />
  <path
    fill-rule="evenodd"
    clip-rule="evenodd"
    d="M276.194 429.895H276.139C275.94 429.895 275.752 429.913 275.576 429.945C246.504 429.841 217.379 429.841 188.307 429.841C185.65 429.841 182.989 429.843 180.326 429.847H180.321H180.316H180.314C172.31 429.858 164.29 429.867 156.3 429.787C152.714 429.733 146.666 429.572 145.167 425.388C143.936 421.901 146.131 417.557 147.843 414.606C149.017 412.54 150.228 410.51 151.444 408.475H151.444H151.444C152.279 407.076 153.117 405.674 153.945 404.253C159.944 393.942 165.922 383.618 171.901 373.289H171.902L171.903 373.287L171.906 373.28C182.197 355.507 192.494 337.722 202.919 319.978C203.281 319.363 203.643 318.719 204.01 318.064H204.011C206.902 312.915 210.164 307.107 217.05 308.392C221.834 309.309 224.391 313.865 226.609 317.815C226.724 318.021 226.839 318.222 226.952 318.424C230.163 324.028 233.374 329.622 236.585 335.213C239.798 340.805 243.009 346.399 246.22 352.003C251.093 360.526 256.037 368.994 260.981 377.463V377.465L260.984 377.467C264.565 383.6 268.144 389.732 271.698 395.885C274.694 401.14 277.745 406.343 280.796 411.545V411.549C281.064 412.004 281.342 412.462 281.621 412.924C283.9 416.689 286.288 420.633 284.81 425.173C283.675 428.69 280.577 429.873 277.16 430.036C276.902 429.949 276.616 429.9 276.3 429.895H276.248H276.194ZM275.344 435.259H270.948C254.516 435.259 238.071 435.272 221.626 435.285C205.181 435.298 188.736 435.313 172.304 435.313H157.799C150.359 435.313 140.457 433.917 139.387 424.798C138.707 419.005 141.73 413.873 144.575 409.045H144.576H144.576C144.865 408.553 145.153 408.065 145.435 407.579C147.014 404.869 148.593 402.146 150.172 399.425L150.172 399.423C151.751 396.702 153.33 393.979 154.909 391.271L183.009 342.832C187.183 335.697 191.303 328.618 195.424 321.537H195.424L195.426 321.535C196.175 320.247 196.925 318.972 197.674 317.7C198.423 316.425 199.173 315.15 199.922 313.865C200.133 313.509 200.342 313.151 200.552 312.793H200.552C201.991 310.337 203.447 307.85 205.596 305.977C209.877 302.33 216.3 301.418 221.386 303.779C225.186 305.55 228.128 308.876 230.217 312.416C231.461 314.493 232.678 316.653 233.889 318.797C234.396 319.697 234.901 320.594 235.408 321.481C239.369 328.401 243.33 335.307 247.29 342.214L247.292 342.216C251.253 349.122 255.212 356.029 259.172 362.947C262.039 367.949 264.89 372.964 267.741 377.981L267.744 377.985L267.748 377.992C272.941 387.121 278.135 396.258 283.419 405.324C283.963 406.25 284.55 407.185 285.148 408.132C287.25 411.475 289.454 414.975 290.162 418.736C290.912 422.6 290.537 426.782 288.236 430.056C285.454 434.025 280.744 435.365 276.139 435.365C275.851 435.365 275.585 435.328 275.344 435.259ZM184.067 372.858H184.067C182.179 375.793 180.29 378.729 178.46 381.723C177.015 384.082 175.57 386.497 174.178 388.964C173.926 389.417 173.655 389.879 173.379 390.347C172.253 392.266 171.054 394.309 170.753 396.42C170.699 396.795 171.127 397.173 171.502 396.849C172.787 395.52 173.681 393.71 174.544 391.958H174.544C174.831 391.377 175.115 390.801 175.409 390.252C176.131 388.964 176.867 387.679 177.603 386.391H177.603L177.603 386.389C178.339 385.103 179.075 383.815 179.798 382.527C182.688 377.484 185.579 372.441 188.201 367.238C188.362 366.917 187.987 366.702 187.827 366.971C186.585 368.944 185.327 370.9 184.068 372.855L184.067 372.858ZM263.456 412.514C266.077 415.571 261.315 416.807 259.549 416.967C258.906 417.021 258.21 417.021 257.569 417.021L254.02 417.099L250.449 417.182C248.549 417.234 246.636 417.275 244.723 417.316C242.81 417.355 240.894 417.396 238.994 417.448C238.032 417.448 238.032 418.951 238.994 418.951C241.698 418.899 244.4 418.816 247.102 418.736H247.104H247.106C249.808 418.656 252.51 418.576 255.214 418.521C255.71 418.508 256.215 418.504 256.724 418.502C258.078 418.495 259.456 418.487 260.78 418.255C262.546 417.932 264.58 417.182 265.167 415.25C265.596 413.908 265.222 412.568 263.991 411.87C263.51 411.603 263.135 412.193 263.456 412.514ZM221.279 386.712C220.424 389.179 219.139 390.306 217.158 391.807C216.736 392.136 216.286 392.236 215.859 392.175C215.514 392.463 215.068 392.637 214.535 392.613C210.949 392.292 208.808 390.521 207.684 387.089C207.246 385.81 206.985 384.474 206.726 383.143H206.726C206.637 382.685 206.549 382.23 206.453 381.777C204.679 373.207 203.33 364.56 201.98 355.901L201.979 355.897C201.74 354.366 201.502 352.838 201.261 351.307C201.185 350.798 201.094 350.284 201.002 349.768C200.642 347.745 200.278 345.7 200.833 343.691C201.743 340.365 204.901 338.862 208.112 338.541C209.688 338.39 211.218 338.368 212.783 338.388C213.212 338.372 213.65 338.351 214.093 338.331H214.094H214.095C217.163 338.19 220.512 338.036 223.26 338.862C229.467 340.697 228.564 346.409 227.771 351.439L227.769 351.448L227.766 351.461C227.727 351.715 227.686 351.968 227.649 352.218C227.411 353.75 227.179 355.281 226.947 356.812L226.945 356.814C226.447 360.105 225.949 363.39 225.4 366.648C224.599 371.797 223.635 376.895 222.51 381.99C222.426 382.341 222.345 382.692 222.263 383.045V383.048V383.05C221.979 384.268 221.693 385.506 221.279 386.712ZM211.305 343.957L211.482 343.966L211.694 343.975C212.141 343.994 212.547 344.011 212.876 344.011H218.389C218.703 344.011 218.985 343.959 219.238 343.864C220.688 343.864 222.153 344.016 222.725 344.707C223.457 345.605 222.922 348.081 222.53 349.9C222.404 350.477 222.293 350.986 222.244 351.361C222.057 352.614 221.869 353.857 221.682 355.099L221.68 355.114C221.494 356.363 221.305 357.61 221.119 358.869C220.664 361.792 220.222 364.714 219.782 367.635L219.78 367.641C219.338 370.564 218.898 373.489 218.443 376.411C218.361 376.916 218.281 377.419 218.203 377.92C217.919 379.704 217.642 381.465 217.265 383.225C217.215 383.459 217.169 383.696 217.126 383.928L217.124 383.93C217.026 384.442 216.931 384.945 216.784 385.424C216.415 386.716 215.849 387.215 214.983 387.976C214.889 388.058 214.791 388.145 214.69 388.236C212.615 387.705 212.24 385.753 211.86 383.778L211.805 383.494C211.526 382.026 211.293 380.539 211.061 379.056C210.936 378.26 210.812 377.467 210.681 376.682C210.226 373.677 209.771 370.69 209.317 367.7L209.316 367.695L209.314 367.678C208.86 364.693 208.405 361.709 207.951 358.711C207.764 357.477 207.577 356.229 207.389 354.982C207.202 353.735 207.015 352.489 206.827 351.255C206.776 350.945 206.689 350.55 206.592 350.106C206.18 348.231 205.575 345.471 206.613 344.603C207.37 343.975 208.957 343.897 210.44 343.929C210.585 343.946 210.737 343.957 210.896 343.957H211.305ZM215.263 397.528C212.862 397.268 210.279 398.176 208.54 400.284C204.579 405.112 206.024 413.427 212.661 414.714C215.658 415.304 219.351 414.821 221.44 412.408C223.312 410.261 223.632 406.935 223.097 404.253C222.562 401.463 220.742 398.781 218.014 397.871C217.124 397.578 216.18 397.461 215.263 397.528ZM212.112 402.97C212.524 403.067 212.977 403.002 213.41 402.697C219.405 398.512 221.386 412.943 213.143 409.992C210.359 408.973 210.467 405.112 212.072 403.02C212.085 403.002 212.099 402.987 212.112 402.97Z"
    fill="#FB4E4E"
  />
  <path
    d="M533.306 454.08C533.306 454.08 533.085 465.167 533.306 466.275C533.453 467.385 528.955 473.89 527.111 473.593C525.267 473.298 521.58 472.706 521.062 472.04C520.546 471.45 520.767 469.972 520.988 468.641C521.209 467.309 522.537 455.262 522.537 454.672C522.537 454.08 531.241 452.38 533.306 454.08Z"
    fill="#FFD3BC"
  />
  <path
    d="M526.151 465.61C523.865 466.867 522.537 470.638 522.243 470.711C521.948 470.785 521.285 470.638 521.285 470.267C521.285 469.898 521.358 468.641 520.99 468.641C520.546 468.641 520.104 470.711 520.03 473.742C519.957 476.773 518.85 483.943 520.03 484.83C520.767 485.42 527.406 488.895 527.627 489.411C527.848 489.855 527.479 493.181 528.069 493.699C528.66 494.218 529.913 495.473 530.946 495.547C531.98 495.62 537.953 496.212 540.754 495.547C543.558 494.881 547.099 493.552 547.246 493.181C547.32 492.813 546.507 484.83 545.623 483.869C544.737 482.907 538.321 474.037 537.806 473.224C537.288 472.411 536.92 470.49 536.92 469.38C536.92 468.272 535.888 465.759 534.044 465.168C531.977 464.502 527.921 464.723 526.151 465.61Z"
    fill="#015AA4"
  />
  <path
    d="M465.97 460.511C465.97 460.511 465.97 466.941 465.749 468.051C465.602 469.159 470.1 475.663 471.943 475.368C473.787 475.071 477.475 474.481 477.991 473.816C478.508 473.224 478.285 471.745 478.064 470.416C477.843 469.085 476.665 461.694 476.665 461.029C476.812 460.437 468.035 458.811 465.97 460.511Z"
    fill="#FFD3BC"
  />
  <path
    d="M471.943 318.294C469.363 327.829 464.421 360.352 464.421 376.246C464.421 392.065 462.871 432.423 462.871 438.557C462.871 444.692 462.208 459.919 463.831 460.732C465.38 461.545 469.068 463.91 474.082 463.097C479.098 462.284 480.426 459.106 480.573 456.224C480.72 453.341 481.901 432.423 483.08 424.364C484.261 416.308 488.464 400.787 491.268 390.733C494.069 380.754 500.487 360.649 502.181 360.723C503.878 360.797 514.573 404.852 515.459 407.365C516.343 409.877 518.039 445.358 518.186 448.315C518.26 451.27 518.187 454.154 520.03 455.335C521.874 456.519 527.627 459.55 530.578 459.771C533.526 459.992 535.518 455.262 536.109 453.785C536.625 452.38 537.656 404.926 537.288 391.915C536.92 378.907 537.953 354.661 537.361 346.752C536.772 338.843 534.855 321.917 533.6 318.294C532.274 314.673 471.943 318.294 471.943 318.294Z"
    fill="#3B464C"
  />
  <path
    d="M453.505 207.715C456.014 204.906 467.593 191.823 469.952 191.379C472.238 190.936 477.843 189.901 479.098 188.57C480.352 187.24 485.661 170.609 483.522 167.578C481.457 164.547 473.345 165.435 470.912 170.535C468.477 175.709 468.55 178.37 464.568 181.918C460.512 185.466 442.886 199.88 441.263 201.358C439.64 202.836 442.886 209.932 445.467 211.115C447.973 212.519 453.505 207.715 453.505 207.715Z"
    fill="url(#paint0_linear_1424_9404)"
  />
  <path
    d="M485.663 211.707C479.687 212.963 469.878 213.998 466.633 215.033C463.389 216.068 450.556 220.577 450.63 218.656C450.703 216.733 456.603 208.307 455.496 207.42C454.465 206.533 448.123 205.498 447.089 204.167C446.056 202.837 444.583 199.658 443.181 200.028C441.779 200.398 425.111 215.994 426.218 221.908C428.872 235.951 468.256 246.152 469.142 252.287C470.026 258.423 466.117 317.112 468.256 319.257C470.394 321.399 493.259 329.679 504.69 330.418C516.195 331.157 536.33 327.092 537.435 324.061C538.542 321.03 531.83 262.709 532.643 262.709C533.453 262.709 533.674 281.04 542.377 285.845C548.13 288.949 556.094 285.771 557.644 283.997C559.193 282.298 552.186 257.831 549.088 249.627C545.918 241.421 542.967 224.421 535.812 218.359C528.734 212.298 518.628 213.333 515.162 211.929C511.695 210.524 500.117 211.559 497.168 211.19C494.217 211.042 485.663 211.707 485.663 211.707Z"
    fill="#015AA4"
  />
  <path
    d="M559.782 273.131C559.782 273.131 549.532 276.236 548.719 277.27C547.909 278.306 546.507 282.592 548.719 284.366C550.931 286.141 553.367 287.471 556.021 285.402C558.677 283.332 561.037 280.598 562.586 280.227C564.135 279.858 568.633 280.524 570.55 279.785C572.468 279.045 576.082 264.556 574.606 263.669C573.205 262.783 559.782 273.131 559.782 273.131Z"
    fill="#FFD0A6"
  />
  <path
    d="M485.663 209.785C482.343 209.12 475.999 202.837 475.41 196.48C474.821 190.271 470.321 172.9 486.105 166.396C500.929 160.261 516.195 166.544 518.407 174.157C520.472 181.179 503.067 181.549 496.65 186.131C490.234 190.714 489.866 193.745 488.243 193.08C486.62 192.267 485.663 209.785 485.663 209.785Z"
    fill="#E64D4E"
  />
  <path
    d="M485.44 197.367C485.219 200.176 484.556 213.924 485.736 215.92C486.841 217.767 488.759 223.164 496.355 222.942C503.952 222.721 508.82 215.107 509.262 214.22C509.704 213.333 508.82 202.319 508.82 200.545C508.82 198.697 498.643 194.336 494.511 194.484C490.382 194.558 485.589 194.706 485.44 197.367Z"
    fill="url(#paint1_linear_1424_9404)"
  />
  <path
    d="M486.105 197.441C486.989 197.441 485.957 202.615 487.507 204.315C489.054 206.015 495.766 214.959 502.92 214.072C509.115 213.333 508.231 208.011 509.115 203.576C509.927 199.584 512.508 199.215 513.392 188.866C513.762 184.875 515.606 178.518 512.139 177.409C508.673 176.227 495.545 173.122 492.299 177.409C489.053 181.696 488.759 191.897 487.062 190.64C485.366 189.31 481.828 182.879 479.687 186.353C477.548 189.827 481.531 197.588 486.105 197.441Z"
    fill="#F2DAD4"
  />
  <path
    d="M541.196 250.587L520.472 276.901C519.367 278.306 520.399 280.301 522.095 280.227L560.447 279.564C561.11 279.564 561.7 279.267 562.068 278.751L581.687 252.508C582.645 251.253 581.687 249.479 580.138 249.479L542.746 249.774C542.156 249.848 541.567 250.143 541.196 250.587Z"
    fill="url(#paint2_linear_1424_9404)"
  />
  <path
    d="M574.017 261.23C572.026 261.454 569.075 262.562 569.075 263.596C569.075 264.632 571.434 264.927 572.1 265.074C572.763 265.148 573.575 265.371 573.352 265.666C573.131 265.961 572.615 267.587 571.287 267.366C569.961 267.071 564.282 266.998 563.175 266.998C562.068 266.998 560.816 267.737 560.668 268.55C560.595 269.363 560.374 269.51 559.708 269.584C559.045 269.658 557.865 270.25 557.865 271.284C557.865 272.318 560.447 273.281 560.447 273.649C560.447 274.018 565.535 277.122 566.568 277.714C567.6 278.306 569.443 279.785 570.477 279.785C571.508 279.785 573.278 278.748 573.428 277.346C573.575 275.867 575.64 274.831 575.64 274.094C575.64 273.354 574.975 272.836 575.049 272.392C575.122 271.949 576.966 271.284 576.966 270.176C576.966 269.066 576.229 267.514 576.156 266.998C576.082 266.553 575.64 265.519 576.082 265.371C576.524 265.222 577.999 263.893 577.705 262.562C577.557 261.38 574.901 261.083 574.017 261.23Z"
    fill="#FFD0A6"
  />
  <path
    d="M472.977 467.385C475.263 468.641 476.591 472.411 476.885 472.485C477.18 472.558 477.843 472.411 477.843 472.04C477.843 471.672 477.769 470.414 478.138 470.414C478.582 470.414 479.024 472.485 479.098 475.516C479.171 478.547 480.278 485.716 479.098 486.603C478.361 487.195 471.722 490.668 471.501 491.186C471.28 491.629 471.649 494.955 471.059 495.473C470.468 495.991 469.215 497.246 468.182 497.32C467.151 497.394 461.175 497.986 458.374 497.32C455.57 496.657 452.032 495.325 451.882 494.955C451.809 494.586 452.621 486.603 453.505 485.643C454.391 484.68 460.807 475.811 461.325 474.998C461.84 474.185 462.208 472.264 462.208 471.154C462.208 470.046 463.242 467.533 465.086 466.941C467.151 466.275 471.207 466.497 472.977 467.385Z"
    fill="#015AA4"
  />
  <defs>
    <linearGradient id="paint0_linear_1424_9404" x1="490.692" y1="191.772" x2="458.964" y2="188.239" gradientUnits="userSpaceOnUse">
      <stop stop-color="#F2BFAD" />
      <stop offset="1" stop-color="#F2DAD4" />
    </linearGradient>
    <linearGradient id="paint1_linear_1424_9404" x1="494.808" y1="203.186" x2="505.336" y2="225.125" gradientUnits="userSpaceOnUse">
      <stop stop-color="#F2BFAD" />
      <stop offset="1" stop-color="#F2DAD4" />
    </linearGradient>
    <linearGradient id="paint2_linear_1424_9404" x1="543.95" y1="251.817" x2="562.277" y2="285.455" gradientUnits="userSpaceOnUse">
      <stop stop-color="#F6DBDB" />
      <stop offset="1" stop-color="#EB9A99" />
    </linearGradient>
  </defs>
</svg>
