<?xml version="1.0" standalone="no"?>
<!DOCTYPE svg PUBLIC "-//W3C//DTD SVG 20010904//EN"
 "http://www.w3.org/TR/2001/REC-SVG-20010904/DTD/svg10.dtd">
<svg version="1.0" xmlns="http://www.w3.org/2000/svg"
 width="480.000000pt" height="100.000000pt" viewBox="0 0 480.000000 100.000000"
 preserveAspectRatio="xMidYMid meet">

<g transform="translate(0.000000,100.000000) scale(0.100000,-0.100000)"
fill="#ffffff" stroke="none">
<path d="M449 941 c-20 -20 -29 -39 -29 -61 0 -45 47 -90 93 -90 81 0 118 102
56 154 -41 35 -83 34 -120 -3z"/>
<path d="M1193 946 l-28 -24 0 -437 0 -437 28 -24 c39 -33 81 -31 118 5 l29
29 0 157 c0 86 4 155 8 153 5 -1 80 -79 167 -173 88 -94 166 -175 175 -182 49
-39 130 7 130 75 0 36 -11 50 -175 225 -96 103 -175 191 -175 195 0 4 33 38
74 75 82 74 97 106 72 155 -17 34 -65 57 -96 47 -12 -4 -56 -38 -98 -77 l-77
-70 -5 142 c-5 140 -5 142 -33 166 -36 31 -78 31 -114 0z"/>
<path d="M1984 960 c-51 -20 -54 -36 -54 -305 0 -272 9 -340 55 -444 79 -175
310 -257 517 -183 113 40 182 110 230 231 19 48 22 81 26 227 l4 171 -32 26
c-39 34 -70 34 -108 2 l-29 -24 -5 -148 c-4 -124 -8 -156 -27 -198 -44 -100
-99 -135 -211 -135 -109 0 -169 32 -213 115 -21 38 -22 58 -27 325 -3 157 -9
293 -14 303 -9 19 -57 47 -78 46 -7 0 -23 -4 -34 -9z"/>
<path d="M2609 941 c-20 -20 -29 -39 -29 -61 0 -45 47 -90 93 -90 80 0 115 93
58 151 -40 39 -82 39 -122 0z"/>
<path d="M2950 941 l-30 -29 0 -427 0 -427 29 -29 c37 -36 79 -38 118 -5 28
24 28 26 31 150 l4 126 114 0 114 0 19 -38 c25 -48 41 -62 83 -68 27 -5 41 -1
65 20 38 32 47 66 30 107 -12 32 -12 33 30 72 23 21 55 65 70 96 25 50 28 67
28 151 -1 82 -5 103 -29 155 -31 69 -74 118 -131 148 -37 21 -56 22 -278 25
l-237 3 -30 -30z m449 -179 c55 -27 76 -64 76 -130 -1 -64 -24 -114 -62 -131
-14 -6 -86 -11 -168 -11 l-145 0 0 145 0 145 133 0 c106 0 139 -3 166 -18z"/>
<path d="M4231 944 c-62 -52 -25 -154 56 -154 46 0 93 45 93 90 0 22 -9 41
-29 61 -37 37 -79 38 -120 3z"/>
<path d="M178 887 c-57 -43 -123 -142 -149 -225 -28 -90 -28 -223 -1 -308 35
-110 129 -226 233 -287 56 -33 185 -67 253 -67 182 0 370 118 451 284 59 119
69 220 35 352 -25 97 -69 171 -138 235 -44 40 -60 49 -91 49 -47 0 -81 -33
-81 -78 0 -23 13 -45 50 -88 79 -90 95 -132 94 -244 0 -77 -4 -104 -23 -141
-34 -71 -86 -125 -149 -156 -49 -24 -69 -28 -147 -28 -76 0 -98 4 -145 26 -62
30 -123 86 -151 141 -31 61 -45 166 -30 232 13 57 68 151 115 195 19 18 26 35
26 63 0 81 -75 104 -152 45z"/>
<path d="M3975 902 c-39 -24 -96 -88 -129 -144 -33 -57 -66 -185 -66 -257 0
-225 165 -427 395 -486 155 -39 332 8 455 121 115 107 161 212 162 364 0 118
-25 203 -85 292 -76 113 -167 158 -217 108 -36 -36 -26 -78 35 -156 74 -92 99
-159 92 -244 -11 -137 -75 -236 -187 -289 -47 -22 -69 -26 -145 -26 -80 0 -97
3 -148 29 -67 34 -120 89 -151 155 -16 37 -21 65 -21 141 0 112 16 154 95 244
56 64 63 97 29 140 -25 32 -70 35 -114 8z"/>
<path d="M3497 159 c-24 -14 -45 -64 -39 -94 8 -44 38 -65 93 -65 45 0 51 3
70 33 25 40 19 83 -17 115 -27 24 -76 29 -107 11z"/>
</g>
</svg>
