<svg version="1.1" xmlns="http://www.w3.org/2000/svg" xmlns:xlink="http://www.w3.org/1999/xlink" viewBox="0 0 24 24">
  <path
    d="M12,4c-4.4,0-8,3.6-8,8c0,4.4,3.6,8,8,8c4.4,0,8-3.6,8-8C20,7.6,16.4,4,12,4z M2,12C2,6.5,6.5,2,12,2c5.5,0,10,4.5,10,10
	c0,5.5-4.5,10-10,10C6.5,22,2,17.5,2,12z"
  />
  <path d="M12,14c-0.6,0-1-0.4-1-1V7c0-0.6,0.4-1,1-1c0.6,0,1,0.4,1,1v6C13,13.6,12.6,14,12,14z" />
  <path d="M10.5,16.5c0-0.8,0.7-1.5,1.5-1.5c0.8,0,1.5,0.7,1.5,1.5S12.8,18,12,18C11.2,18,10.5,17.3,10.5,16.5z" />
</svg>
