<svg id="Layer_1" data-name="Layer 1" xmlns="http://www.w3.org/2000/svg" viewBox="0 0 20.42 17.69"><path d="M2.9,5.9a.38.38,0,0,1,.4-.19H8.55V5.48a8.36,8.36,0,0,1,0-1A1.28,1.28,0,0,1,9.83,3.41q2.46,0,4.92,0A1.33,1.33,0,0,1,16,4.74V7.19h.18c1.32,0,2.65,0,4,0A.2.2,0,0,0,20.41,7a1,1,0,0,1,.6-.58c.1,0,.14-.08.09-.2H17c-.27,0-.41-.09-.41-.27s.13-.28.41-.28h4.27c.33,0,.41.07.41.41v.51a.3.3,0,0,1-.25.3c-.41.07-.45.16-.57.56a13.13,13.13,0,0,0-.12,2.08h.47a.44.44,0,0,1,.47.47v1.41a.43.43,0,0,1-.46.46h-.46v2c0,.23-.1.36-.28.35s-.27-.12-.27-.34v-2H4.39v.84c0,.41,0,.81,0,1.21,0,.22-.12.33-.29.32s-.25-.12-.25-.32c0-.62,0-1.23,0-1.85v-.21H3.37a.4.4,0,0,1-.44-.43q0-.73,0-1.47a.41.41,0,0,1,.44-.44h.47V9.1a8.61,8.61,0,0,1,0-.88,2.55,2.55,0,0,0-.18-1,.46.46,0,0,0-.44-.33.43.43,0,0,1-.33-.2ZM16,7.74a1.35,1.35,0,0,1-1.32,1.34H9.86A1.28,1.28,0,0,1,8.58,8a9,9,0,0,1,0-1V6.27H3.46l0,.05s.08.11.14.13a1.06,1.06,0,0,1,.6.59c0,.13.12.15.24.15.69,0,1.38,0,2.07,0,.4,0,.81,0,1.21,0a.27.27,0,0,1,.3.34c0,.17-.18.21-.34.21H4.41V9.56H20.2V7.74ZM12.3,4H9.93a.78.78,0,0,0-.83.82V7.7a.8.8,0,0,0,.84.84h4.7a.8.8,0,0,0,.84-.84V4.8A.79.79,0,0,0,14.63,4ZM3.49,11.35H21.11V10.14H3.49Z" transform="translate(-1.79 -3.4)"/><path d="M14.52,19.5h5.67V15.28c0-.29.09-.43.28-.43s.27.14.27.43v4.21c0,.45-.13.57-.57.57H4.41c-.44,0-.57-.13-.57-.57V15.27c0-.28.09-.41.27-.42s.28.14.28.43V19.5h5.67V14.42a.66.66,0,0,1,.75-.75h2.95a.66.66,0,0,1,.76.76V19.5Zm-.56,0a.38.38,0,0,0,0-.1v-5c0-.16-.06-.19-.2-.19H10.85c-.24,0-.24,0-.24.24v5Z" transform="translate(-1.79 -3.4)"/><path d="M7.13,14.26H8.78a.58.58,0,0,1,.63.62V17.8a.58.58,0,0,1-.65.63H5.48a.59.59,0,0,1-.64-.64v-2.9a.58.58,0,0,1,.64-.63ZM5.4,17.86l.13,0H8.7c.16,0,.16-.08.16-.19V15c0-.06,0-.12,0-.18H5.4Z" transform="translate(-1.79 -3.4)"/><path d="M17.44,14.26h1.67a.58.58,0,0,1,.63.62V17.8a.58.58,0,0,1-.63.63H15.79a.58.58,0,0,1-.62-.62q0-1.47,0-2.94a.57.57,0,0,1,.64-.61Zm1.74,3.61V14.82H15.73c0,.07,0,.12,0,.18,0,.9,0,1.79,0,2.68,0,.16,0,.2.21.2h3.26Z" transform="translate(-1.79 -3.4)"/><path d="M13.93,5.34H11.77a.27.27,0,0,1,0-.54H14c.42,0,.61.27.46.66s-.33.88-.5,1.31a.69.69,0,0,1-.71.5H11.73A.69.69,0,0,1,11,6.67c-.11-.49-.22-1-.31-1.47a.15.15,0,0,0-.19-.15h-.22a.26.26,0,0,1-.23-.27.25.25,0,0,1,.23-.27,2,2,0,0,1,.49,0,.51.51,0,0,1,.42.43c.11.51.23,1,.33,1.54,0,.16.1.23.26.22h1.43a.25.25,0,0,0,.28-.18C13.63,6.14,13.78,5.76,13.93,5.34Z" transform="translate(-1.79 -3.4)"/><path d="M11.69,8a.28.28,0,1,1,0-.55.28.28,0,0,1,.31.29C12,7.94,11.88,8,11.69,8Z" transform="translate(-1.79 -3.4)"/><path d="M12.88,8a.27.27,0,0,1-.3-.27.28.28,0,0,1,.31-.28.28.28,0,1,1,0,.55Z" transform="translate(-1.79 -3.4)"/><path d="M11.13,16.57a1,1,0,0,1,.27.09.26.26,0,0,1,0,.39.54.54,0,0,1-.62,0,.26.26,0,0,1,0-.39A1.23,1.23,0,0,1,11.13,16.57Z" transform="translate(-1.79 -3.4)"/><path d="M21.71,20.6,2.29,4" transform="translate(-1.79 -3.4)" style="stroke:#000;stroke-linecap:round;stroke-miterlimit:10"/></svg>