<svg version="1.1" xmlns="http://www.w3.org/2000/svg" xmlns:xlink="http://www.w3.org/1999/xlink" viewBox="0 0 24 24">
  <path
    d="M21.1,2.9C20.5,2.3,19.8,2,19,2c-0.8,0-1.6,0.3-2.1,0.9l-1.9,2l4.2,4.2l1.9-1.9C21.6,6.6,22,5.8,22,5
	C22,4.2,21.7,3.5,21.1,2.9z"
  />
  <path
    d="M13.5,6.3l-8.4,8.4C5,14.7,5,14.8,4.9,14.9l-2.8,5.6c-0.2,0.3-0.2,0.7,0,1C2.3,21.8,2.6,22,3,22
	c0.2,0,0.3,0,0.4-0.1L9,19.1c0.1-0.1,0.2-0.1,0.3-0.2l8.4-8.4L13.5,6.3z"
  />
  <path d="M21,22h-9c-0.6,0-1-0.4-1-1c0-0.6,0.4-1,1-1h9c0.6,0,1,0.4,1,1C22,21.6,21.6,22,21,22z" />
</svg>
