<?xml version="1.0" encoding="utf-8"?>
<!-- Generator: Adobe Illustrator 25.4.1, SVG Export Plug-In . SVG Version: 6.00 Build 0)  -->
<svg version="1.1" id="Layer_1" xmlns="http://www.w3.org/2000/svg" xmlns:xlink="http://www.w3.org/1999/xlink" x="0px" y="0px"
	 viewBox="0 0 24 24" style="enable-background:new 0 0 24 24;" xml:space="preserve">
<path d="M12,4c-4.4,0-8,3.6-8,8c0,4.4,3.6,8,8,8c4.4,0,8-3.6,8-8C20,7.6,16.4,4,12,4z M2,12C2,6.5,6.5,2,12,2c5.5,0,10,4.5,10,10
	c0,5.5-4.5,10-10,10C6.5,22,2,17.5,2,12z"/>
<path d="M12,10c0.6,0,1,0.4,1,1v6c0,0.6-0.4,1-1,1c-0.6,0-1-0.4-1-1v-6C11,10.4,11.4,10,12,10z"/>
<path d="M13.5,7.5C13.5,8.3,12.8,9,12,9c-0.8,0-1.5-0.7-1.5-1.5S11.2,6,12,6C12.8,6,13.5,6.7,13.5,7.5z"/>
</svg>
