<svg version="1.1" viewBox="0 0 73 73">
  <g>
    <rect x="44.4" y="54.9" width="13.1" height="3.9" />
    <rect x="22.6" y="26" width="8.7" height="7.4" />
    <rect x="22.6" y="33.9" width="8.7" height="4.7" />
    <polygon
      points="31.8,33.4 57.5,33.4 57.5,33.9 31.8,33.9 31.8,38.6 57.5,38.6 57.5,39.1 31.8,39.1 31.8,48.3 31.3,48.3 31.3,39.1 
		22.6,39.1 22.6,48.3 22.1,48.3 22.1,39.1 15.5,39.1 15.5,38.6 22.1,38.6 22.1,33.9 15.5,33.9 15.5,33.4 22.1,33.4 22.1,26 15.5,26 
		15.5,48.3 57.5,48.3 57.5,26 31.8,26 	"
    />
    <path
      d="M45.7,12.9V9H27.3v3.9h-21V64h60.3V12.9H45.7z M64.7,62H8.3V14.9h19v1.2c0,1.1,0.9,2,2,2l0,0h14.3c1.1,0,2-0.9,2-2v-1.2h19
		V62z"
    />
  </g>
</svg>
