<svg id="Layer_1" data-name="Layer 1" xmlns="http://www.w3.org/2000/svg" viewBox="0 0 20 17.74"><path d="M2,5.79a.4.4,0,0,1,.42-.21H8a1.92,1.92,0,0,1,0-.24,7.66,7.66,0,0,1,0-1.07A1.35,1.35,0,0,1,9.38,3.14c1.75,0,3.49,0,5.24,0A1.4,1.4,0,0,1,16,4.55c0,.78,0,1.57,0,2.36v.25h4.43A.21.21,0,0,0,20.65,7a1.06,1.06,0,0,1,.64-.62c.11,0,.15-.09.1-.21H17c-.3,0-.44-.1-.44-.29s.14-.3.43-.3h4.55c.36,0,.44.08.44.44v.54a.29.29,0,0,1-.26.32c-.44.08-.48.17-.61.6A13.65,13.65,0,0,0,21,9.7h.5a.46.46,0,0,1,.5.5v1.5a.45.45,0,0,1-.49.49H21v2.18c0,.24-.11.37-.3.37s-.28-.13-.28-.37V12.21H3.59V14.4c0,.22-.13.35-.32.34S3,14.61,3,14.39v-2.2H2.5A.43.43,0,0,1,2,11.73Q2,11,2,10.17A.44.44,0,0,1,2.5,9.7H3V9.2c0-.32,0-.63,0-.94a2.67,2.67,0,0,0-.19-1,.49.49,0,0,0-.47-.36A.43.43,0,0,1,2,6.69Zm14,2a1.44,1.44,0,0,1-1.4,1.43H9.41A1.38,1.38,0,0,1,8.05,8,8.23,8.23,0,0,1,8,6.88c0-.23,0-.47,0-.7H2.59l0,.05s.09.12.15.14A1.13,1.13,0,0,1,3.35,7c0,.14.13.16.26.16H7.1c.23,0,.38.17.32.36s-.19.22-.36.22H3.6V9.69H20.42V7.75Zm-4-4H9.49a.84.84,0,0,0-.89.88V7.7a.84.84,0,0,0,.9.89h5a.85.85,0,0,0,.9-.89V4.62a.85.85,0,0,0-.91-.9ZM2.62,11.59H21.4V10.3H2.62Z" transform="translate(-2 -3.13)"/><path d="M14.38,20.27h6V15.78c0-.31.1-.46.31-.45s.28.14.28.45v4.49c0,.47-.14.6-.61.6H3.6c-.47,0-.6-.13-.6-.61V15.77c0-.3.09-.44.29-.44s.3.14.3.45v4.49h6v-5.4a.71.71,0,0,1,.8-.81h3.14c.56,0,.82.26.82.81v5.4Zm-.6,0a.53.53,0,0,0,0-.12V14.85c0-.17-.06-.2-.22-.2h-3.1c-.26,0-.26,0-.26.26v5.37Z" transform="translate(-2 -3.13)"/><path d="M6.5,14.69H8.26a.61.61,0,0,1,.67.67c0,1,0,2.07,0,3.1a.62.62,0,0,1-.69.67H4.75a.63.63,0,0,1-.69-.68V15.37a.63.63,0,0,1,.68-.68ZM4.66,18.53l.14,0c1.13,0,2.25,0,3.38,0,.17,0,.17-.08.17-.21V15.48a1.11,1.11,0,0,0,0-.19H4.66Z" transform="translate(-2 -3.13)"/><path d="M17.49,14.69h1.77a.62.62,0,0,1,.67.67c0,1,0,2.07,0,3.1a.62.62,0,0,1-.67.67c-1.17,0-2.35,0-3.53,0a.61.61,0,0,1-.66-.66q0-1.56,0-3.12a.61.61,0,0,1,.68-.66Zm1.84,3.85V15.29H15.66c0,.07,0,.13,0,.19,0,.95,0,1.9,0,2.85,0,.18,0,.22.22.22,1.09,0,2.18,0,3.28,0Z" transform="translate(-2 -3.13)"/><path d="M13.75,5.19H11.44a.28.28,0,0,1-.27-.3.27.27,0,0,1,.29-.27h2.38c.44,0,.65.29.49.7s-.35.94-.53,1.41a.73.73,0,0,1-.76.52H11.4a.73.73,0,0,1-.78-.62c-.11-.52-.22-1-.32-1.56,0-.14-.09-.18-.21-.16a.87.87,0,0,1-.23,0,.28.28,0,0,1-.25-.29.27.27,0,0,1,.24-.28,1.88,1.88,0,0,1,.53,0,.53.53,0,0,1,.45.45c.12.55.24,1.1.35,1.64,0,.18.1.24.28.24.51,0,1,0,1.52,0a.28.28,0,0,0,.3-.19C13.42,6,13.58,5.63,13.75,5.19Z" transform="translate(-2 -3.13)"/><path d="M11.36,8.06A.3.3,0,0,1,11,7.78a.31.31,0,0,1,.33-.3.29.29,0,0,1,.33.3A.28.28,0,0,1,11.36,8.06Z" transform="translate(-2 -3.13)"/><path d="M12.63,8.06c-.2,0-.32-.11-.32-.28a.3.3,0,0,1,.33-.3.31.31,0,0,1,.33.29A.3.3,0,0,1,12.63,8.06Z" transform="translate(-2 -3.13)"/><path d="M10.76,17.15a1.63,1.63,0,0,1,.29.1.29.29,0,0,1,0,.42.59.59,0,0,1-.67,0,.29.29,0,0,1,0-.41A1,1,0,0,1,10.76,17.15Z" transform="translate(-2 -3.13)"/></svg>