<svg xmlns="http://www.w3.org/2000/svg" viewBox="0 0 24 24">
  <path
    d="M6.5 8c.8 0 1.5.7 1.5 1.5s-.7 1.5-1.5 1.5-1.5-.7-1.5-1.5.7-1.5 1.5-1.5m0-1c-1.4 0-2.5 1.1-2.5 2.5s1.1 2.5 2.5 2.5 2.5-1.1 2.5-2.5-1.1-2.5-2.5-2.5zm15.5-4h-20c-1.1 0-2 .9-2 2v14c0 1.1.9 2 2 2h20c1.1 0 2-.9 2-2v-14c0-1.1-.9-2-2-2zm-20 2h20v9.6l-4.1-4.1c-1.3-1.3-3.5-1.3-4.9 0l-4 4c-1-.4-2.2-.2-3 .6l-3.9 3.9h-.1v-14zm5.4 11.5c.1-.1.1-.1.2-.1.3-.2.7-.1 1 .1l.6.6 1.9 1.9h-6.2l2.5-2.5zm6.6 2.5l-3.3-3.3 3.8-3.8c.6-.6 1.5-.6 2.1 0l5.5 5.5v1.6h-8.1z"
  ></path>
</svg>
