<svg
  xmlns="http://www.w3.org/2000/svg"
  xmlns:xlink="http://www.w3.org/1999/xlink"
  viewBox="0 0 24 24"
>
  <path
    d="M5.1,19.4c0,0.9,0.8,1.7,1.7,1.7l0,0h10.3c0.9,0,1.7-0.8,1.7-1.7l0,0v-12H5.1V19.4z M14.9,10.3c0-0.3,0.3-0.6,0.6-0.6
	S16,10,16,10.3v8c0,0.3-0.3,0.6-0.6,0.6s-0.6-0.3-0.6-0.6V10.3z M11.4,10.3c0-0.3,0.3-0.6,0.6-0.6s0.6,0.3,0.6,0.6v8
	c0,0.3-0.3,0.6-0.6,0.6s-0.6-0.3-0.6-0.6V10.3z M8,10.3C8,10,8.3,9.7,8.6,9.7c0.3,0,0.6,0.3,0.6,0.6v8c0,0.3-0.3,0.6-0.6,0.6
	c-0.3,0-0.6-0.3-0.6-0.6V10.3z M19.4,4h-4.3l-0.3-0.7C14.7,3,14.4,2.9,14,2.9H10C9.6,2.9,9.3,3,9.2,3.3L8.9,4H4.6C4.3,4,4,4.3,4,4.6
	v1.1C4,6,4.3,6.3,4.6,6.3h14.9C19.7,6.3,20,6,20,5.7V4.6C20,4.3,19.7,4,19.4,4z"
  />
</svg>
